<svg fill="none" height="24" viewBox="0 0 24 24" width="24" xmlns="http://www.w3.org/2000/svg">
    <path
        d="M19.835 17.0486H18.1853V15.4953C18.1853 15.4098 18.1111 15.3399 18.0204 15.3399H17.0306C16.9398 15.3399 16.8656 15.4098 16.8656 15.4953V17.0486H15.2159C15.1252 17.0486 15.0509 17.1185 15.0509 17.204V18.136C15.0509 18.2214 15.1252 18.2913 15.2159 18.2913H16.8656V19.8447C16.8656 19.9301 16.9398 20 17.0306 20H18.0204C18.1111 20 18.1853 19.9301 18.1853 19.8447V18.2913H19.835C19.9258 18.2913 20 18.2214 20 18.136V17.204C20 17.1185 19.9258 17.0486 19.835 17.0486ZM9.14297 11.7362C9.12441 11.5672 9.1141 11.3964 9.1141 11.2236C9.1141 10.9148 9.14503 10.6139 9.20277 10.3207C9.2172 10.2508 9.17802 10.1789 9.10997 10.1498C8.82952 10.0314 8.57176 9.86825 8.34905 9.66243C8.08663 9.42284 7.88012 9.13437 7.74272 8.81543C7.60531 8.49649 7.54002 8.15408 7.55101 7.81006C7.56957 7.18677 7.83558 6.59456 8.29956 6.14797C8.8089 5.65672 9.49353 5.38877 10.2215 5.39653C10.8793 5.40236 11.5144 5.64119 11.9949 6.06447C12.1578 6.20816 12.298 6.36738 12.4155 6.53825C12.4568 6.59844 12.5372 6.62368 12.6073 6.60038C12.9703 6.48194 13.3538 6.39845 13.7477 6.35961C13.8631 6.34796 13.9291 6.23146 13.8776 6.13438C13.2074 4.88587 11.8381 4.02376 10.2544 4.00046C7.96962 3.96745 6.06423 5.73245 6.06423 7.88384C6.06423 9.10322 6.66018 10.1906 7.59432 10.9032C6.93856 11.1886 6.33437 11.5828 5.81059 12.076C4.68055 13.1381 4.04129 14.54 4.00005 16.037C3.9995 16.0577 4.00336 16.0783 4.01141 16.0976C4.01945 16.1169 4.03151 16.1345 4.04689 16.1494C4.06226 16.1642 4.08063 16.176 4.10092 16.184C4.12121 16.1921 4.14301 16.1962 4.16502 16.1962H5.32187C5.41054 16.1962 5.48477 16.1302 5.48684 16.0467C5.52602 14.9205 6.01061 13.8662 6.86227 13.0662C7.46853 12.4954 8.21089 12.0993 9.0213 11.907C9.09966 11.8857 9.15328 11.8138 9.14297 11.7362ZM18.4328 11.2236C18.4328 9.09934 16.6202 7.37318 14.3725 7.34017C12.0877 7.30716 10.1843 9.07216 10.1843 11.2236C10.1843 12.4429 10.7823 13.5303 11.7144 14.2429C11.0519 14.5321 10.4487 14.9291 9.93275 15.4157C8.80272 16.4778 8.16346 17.8797 8.12222 19.3748C8.12167 19.3955 8.12553 19.4161 8.13357 19.4354C8.14162 19.4547 8.15368 19.4723 8.16905 19.4871C8.18443 19.502 8.2028 19.5138 8.22309 19.5218C8.24338 19.5299 8.26517 19.534 8.28719 19.534H9.44197C9.53064 19.534 9.60488 19.468 9.60694 19.3845C9.64612 18.2583 10.1307 17.204 10.9824 16.404C11.8711 15.5671 13.0507 15.1069 14.3086 15.1069C16.5851 15.1069 18.4328 13.3691 18.4328 11.2236ZM16.1748 12.9808C15.6757 13.4507 15.0138 13.7089 14.3086 13.7089C13.6033 13.7089 12.9414 13.4507 12.4423 12.9808C12.1933 12.7475 11.9966 12.4696 11.8637 12.1634C11.7309 11.8572 11.6647 11.529 11.6691 11.1983C11.6752 10.5614 11.9454 9.94592 12.4176 9.48962C12.9125 9.01196 13.5745 8.74595 14.2818 8.73818C14.9808 8.73236 15.6592 8.98866 16.1583 9.44884C16.6697 9.92068 16.9501 10.5517 16.9501 11.2236C16.9481 11.8876 16.6738 12.5109 16.1748 12.9808Z"
        fill="black" />
</svg>
