<svg fill="none" height="24" viewBox="0 0 24 24" width="24" xmlns="http://www.w3.org/2000/svg">
    <path
        d="M16.1905 18.4762H5.52381V7.80952H12.381V6.28571H5.52381C4.68571 6.28571 4 6.97143 4 7.80952V18.4762C4 19.3143 4.68571 20 5.52381 20H16.1905C17.0286 20 17.7143 19.3143 17.7143 18.4762V11.619H16.1905V18.4762ZM10.2552 16.061L8.7619 14.2629L6.66667 16.9524H15.0476L12.3505 13.3638L10.2552 16.061ZM17.7143 6.28571V4H16.1905V6.28571H13.9048C13.9124 6.29333 13.9048 7.80952 13.9048 7.80952H16.1905V10.0876C16.1981 10.0952 17.7143 10.0876 17.7143 10.0876V7.80952H20V6.28571H17.7143Z"
        fill="black" />
</svg>
