<svg fill="none" height="24" viewBox="0 0 24 24" width="24" xmlns="http://www.w3.org/2000/svg">
    <path
        d="M18.8131 8.01071L14.5335 4.16786C14.4142 4.06071 14.2531 4 14.0841 4H5.63636C5.28437 4 5 4.25536 5 4.57143V19.4286C5 19.7446 5.28437 20 5.63636 20H18.3636C18.7156 20 19 19.7446 19 19.4286V8.41607C19 8.26429 18.9324 8.11786 18.8131 8.01071ZM17.5324 8.67857H13.7898V5.31786L17.5324 8.67857ZM17.5682 18.7143H6.43182V5.28571H12.4375V9.14286C12.4375 9.34177 12.5255 9.53254 12.6821 9.67319C12.8388 9.81384 13.0512 9.89286 13.2727 9.89286H17.5682V18.7143ZM12.6364 11.2857C12.6364 11.2071 12.5648 11.1429 12.4773 11.1429H11.5227C11.4352 11.1429 11.3636 11.2071 11.3636 11.2857V13.2143H9.21591C9.12841 13.2143 9.05682 13.2786 9.05682 13.3571V14.2143C9.05682 14.2929 9.12841 14.3571 9.21591 14.3571H11.3636V16.2857C11.3636 16.3643 11.4352 16.4286 11.5227 16.4286H12.4773C12.5648 16.4286 12.6364 16.3643 12.6364 16.2857V14.3571H14.7841C14.8716 14.3571 14.9432 14.2929 14.9432 14.2143V13.3571C14.9432 13.2786 14.8716 13.2143 14.7841 13.2143H12.6364V11.2857Z"
        fill="black" />
</svg>
