<svg fill="none" height="24" viewBox="0 0 24 24" width="24" xmlns="http://www.w3.org/2000/svg">
    <path
        d="M14.6429 12.5008C14.2204 12.5008 13.8229 12.2798 13.608 11.9262L12.0006 9.30888L10.3957 11.9262C10.1782 12.2822 9.78069 12.5032 9.35822 12.5032C9.24573 12.5032 9.13323 12.4885 9.02574 12.4566L5.60096 11.4941V15.8645C5.60096 16.2254 5.85094 16.5397 6.20592 16.6257L11.6106 17.954C11.8656 18.0153 12.133 18.0153 12.3855 17.954L17.7952 16.6257C18.1502 16.5373 18.4002 16.223 18.4002 15.8645V11.4941L14.9754 12.4541C14.8679 12.486 14.7554 12.5008 14.6429 12.5008ZM19.9576 9.74592L18.6701 7.22188C18.5926 7.06966 18.4251 6.98127 18.2527 7.00336L12.0006 7.7866L14.2929 11.5211C14.3879 11.6758 14.5779 11.7494 14.7554 11.7003L19.7026 10.3131C19.9501 10.2419 20.07 9.97181 19.9576 9.74592ZM5.33097 7.22188L4.04356 9.74592C3.92856 9.97181 4.05105 10.2419 4.29604 10.3106L9.24323 11.6979C9.42072 11.747 9.6107 11.6733 9.7057 11.5186L12.0006 7.7866L5.74595 7.00336C5.57346 6.98372 5.40847 7.06966 5.33097 7.22188Z"
        fill="black" />
</svg>
