<svg fill="none" height="24" viewBox="0 0 24 24" width="24" xmlns="http://www.w3.org/2000/svg">
    <path
        d="M19.6 14.625H19.2V11.6691C19.2 11.3219 19.0725 10.9883 18.8475 10.7422L16.35 8.01055C16.125 7.76445 15.82 7.625 15.5025 7.625H14.4V6.3125C14.4 5.58789 13.8625 5 13.2 5H6.8C6.1375 5 5.6 5.58789 5.6 6.3125V7.625H4.2C4.09 7.625 4 7.72344 4 7.84375V8.28125C4 8.40156 4.09 8.5 4.2 8.5H11C11.11 8.5 11.2 8.59844 11.2 8.71875V9.15625C11.2 9.27656 11.11 9.375 11 9.375H5C4.89 9.375 4.8 9.47344 4.8 9.59375V10.0312C4.8 10.1516 4.89 10.25 5 10.25H10.2C10.31 10.25 10.4 10.3484 10.4 10.4688V10.9062C10.4 11.0266 10.31 11.125 10.2 11.125H4.2C4.09 11.125 4 11.2234 4 11.3438V11.7812C4 11.9016 4.09 12 4.2 12H9.4C9.51 12 9.6 12.0984 9.6 12.2188V12.6562C9.6 12.7766 9.51 12.875 9.4 12.875H5.6V16.375C5.6 17.8242 6.675 19 8 19C9.325 19 10.4 17.8242 10.4 16.375H13.6C13.6 17.8242 14.675 19 16 19C17.325 19 18.4 17.8242 18.4 16.375H19.6C19.82 16.375 20 16.1781 20 15.9375V15.0625C20 14.8219 19.82 14.625 19.6 14.625ZM8 17.6875C7.3375 17.6875 6.8 17.0996 6.8 16.375C6.8 15.6504 7.3375 15.0625 8 15.0625C8.6625 15.0625 9.2 15.6504 9.2 16.375C9.2 17.0996 8.6625 17.6875 8 17.6875ZM16 17.6875C15.3375 17.6875 14.8 17.0996 14.8 16.375C14.8 15.6504 15.3375 15.0625 16 15.0625C16.6625 15.0625 17.2 15.6504 17.2 16.375C17.2 17.0996 16.6625 17.6875 16 17.6875ZM18 12H14.4V8.9375H15.5025L18 11.6691V12Z"
        fill="black" />
</svg>
