<svg fill="none" height="24" viewBox="0 0 24 24" width="24" xmlns="http://www.w3.org/2000/svg">
    <path
        d="M11.6316 20V17.4502C7.94 17.266 5 14.3196 5 10.7286C5 7.01726 8.13895 4 12 4C15.8611 4 19 7.01726 19 10.7286C19 14.2346 16.4653 17.7618 12.6853 19.5113L11.6316 20ZM12 5.41656C8.94947 5.41656 6.47368 7.79637 6.47368 10.7286C6.47368 13.6609 8.94947 16.0407 12 16.0407H13.1053V17.6698C15.7874 16.0407 17.5263 13.3634 17.5263 10.7286C17.5263 7.79637 15.0505 5.41656 12 5.41656ZM11.2632 13.5618H12.7368V14.9783H11.2632V13.5618ZM12.7368 12.4993H11.2632C11.2632 10.1974 13.4737 10.3745 13.4737 8.95795C13.4737 8.17884 12.8105 7.54139 12 7.54139C11.1895 7.54139 10.5263 8.17884 10.5263 8.95795H9.05263C9.05263 7.39265 10.3716 6.12483 12 6.12483C13.6284 6.12483 14.9474 7.39265 14.9474 8.95795C14.9474 10.7286 12.7368 10.9057 12.7368 12.4993Z"
        fill="black" />
</svg>
