<svg fill="none" height="24" viewBox="0 0 24 24" width="24" xmlns="http://www.w3.org/2000/svg">
    <path
        d="M18.4 8.15853H16.656C16.744 7.9138 16.8 7.6454 16.8 7.3691C16.8009 6.85977 16.6351 6.36378 16.3273 5.9549C16.0196 5.54602 15.5863 5.2461 15.0919 5.09975C14.5975 4.95339 14.0685 4.96843 13.5835 5.14262C13.0985 5.31681 12.6834 5.64085 12.4 6.06653L12 6.59545L11.6 6.05864C11.168 5.42709 10.44 5.0008 9.6 5.0008C8.272 5.0008 7.2 6.05864 7.2 7.3691C7.2 7.6454 7.256 7.9138 7.344 8.15853H5.6C4.712 8.15853 4.008 8.86112 4.008 9.73739L4 18.4211C4 19.2974 4.712 20 5.6 20H18.4C19.288 20 20 19.2974 20 18.4211V9.73739C20 8.86112 19.288 8.15853 18.4 8.15853ZM14.4 6.57966C14.84 6.57966 15.2 6.93491 15.2 7.3691C15.2 7.80328 14.84 8.15853 14.4 8.15853C13.96 8.15853 13.6 7.80328 13.6 7.3691C13.6 6.93491 13.96 6.57966 14.4 6.57966ZM9.6 6.57966C10.04 6.57966 10.4 6.93491 10.4 7.3691C10.4 7.80328 10.04 8.15853 9.6 8.15853C9.16 8.15853 8.8 7.80328 8.8 7.3691C8.8 6.93491 9.16 6.57966 9.6 6.57966ZM18.4 18.4211H5.6V16.8423H18.4V18.4211ZM18.4 14.474H5.6V9.73739H9.664L8 11.9715L9.296 12.8951L12 9.26373L14.704 12.8951L16 11.9715L14.336 9.73739H18.4V14.474Z"
        fill="black" />
</svg>
