<svg fill="none" height="24" viewBox="0 0 24 24" width="24" xmlns="http://www.w3.org/2000/svg">
    <path
        d="M19.375 6.88H16.875V5.28C16.875 4.574 16.3145 4 15.625 4H9.375C8.68555 4 8.125 4.574 8.125 5.28V6.88H5.625C5.2793 6.88 5 7.166 5 7.52V8.16C5 8.248 5.07031 8.32 5.15625 8.32H6.33594L6.81836 18.78C6.84961 19.462 7.40039 20 8.06641 20H16.9336C17.6016 20 18.1504 19.464 18.1816 18.78L18.6641 8.32H19.8438C19.9297 8.32 20 8.248 20 8.16V7.52C20 7.166 19.7207 6.88 19.375 6.88ZM15.4688 6.88H9.53125V5.44H15.4688V6.88Z"
        fill="black" />
</svg>
