<svg fill="none" height="24" viewBox="0 0 24 24" width="24" xmlns="http://www.w3.org/2000/svg">
    <path
        d="M6.914 16.8C6.954 16.8 6.994 16.796 7.034 16.79L10.398 16.2C10.438 16.192 10.476 16.174 10.504 16.144L18.982 7.666C19.0005 7.6475 19.0153 7.62552 19.0253 7.60133C19.0353 7.57713 19.0405 7.55119 19.0405 7.525C19.0405 7.49881 19.0353 7.47287 19.0253 7.44867C19.0153 7.42448 19.0005 7.4025 18.982 7.384L15.658 4.058C15.62 4.02 15.57 4 15.516 4C15.462 4 15.412 4.02 15.374 4.058L6.896 12.536C6.866 12.566 6.848 12.602 6.84 12.642L6.25 16.006C6.23054 16.1131 6.2375 16.2234 6.27025 16.3273C6.30301 16.4311 6.36059 16.5254 6.438 16.602C6.57 16.73 6.736 16.8 6.914 16.8ZM8.262 13.312L15.516 6.06L16.982 7.526L9.728 14.778L7.95 15.092L8.262 13.312ZM19.36 18.48H4.64C4.286 18.48 4 18.766 4 19.12V19.84C4 19.928 4.072 20 4.16 20H19.84C19.928 20 20 19.928 20 19.84V19.12C20 18.766 19.714 18.48 19.36 18.48Z"
        fill="black" />
</svg>
