<svg fill="none" height="24" viewBox="0 0 24 24" width="24" xmlns="http://www.w3.org/2000/svg">
    <path
        d="M10.2222 4H4.88889C4.65314 4 4.42705 4.09365 4.26035 4.26035C4.09365 4.42705 4 4.65314 4 4.88889V10.2222C4 10.458 4.09365 10.6841 4.26035 10.8508C4.42705 11.0175 4.65314 11.1111 4.88889 11.1111H10.2222C10.458 11.1111 10.6841 11.0175 10.8508 10.8508C11.0175 10.6841 11.1111 10.458 11.1111 10.2222V4.88889C11.1111 4.65314 11.0175 4.42705 10.8508 4.26035C10.6841 4.09365 10.458 4 10.2222 4ZM9.33333 9.33333H5.77778V5.77778H9.33333V9.33333ZM13.7778 11.1111H19.1111C19.3469 11.1111 19.573 11.0175 19.7397 10.8508C19.9064 10.6841 20 10.458 20 10.2222V4.88889C20 4.65314 19.9064 4.42705 19.7397 4.26035C19.573 4.09365 19.3469 4 19.1111 4H13.7778C13.542 4 13.3159 4.09365 13.1492 4.26035C12.9825 4.42705 12.8889 4.65314 12.8889 4.88889V10.2222C12.8889 10.458 12.9825 10.6841 13.1492 10.8508C13.3159 11.0175 13.542 11.1111 13.7778 11.1111ZM14.6667 5.77778H18.2222V9.33333H14.6667V5.77778ZM4 19.1111C4 19.3469 4.09365 19.573 4.26035 19.7397C4.42705 19.9064 4.65314 20 4.88889 20H10.2222C10.458 20 10.6841 19.9064 10.8508 19.7397C11.0175 19.573 11.1111 19.3469 11.1111 19.1111V13.7778C11.1111 13.542 11.0175 13.3159 10.8508 13.1492C10.6841 12.9825 10.458 12.8889 10.2222 12.8889H4.88889C4.65314 12.8889 4.42705 12.9825 4.26035 13.1492C4.09365 13.3159 4 13.542 4 13.7778V19.1111ZM5.77778 14.6667H9.33333V18.2222H5.77778V14.6667ZM12.8889 19.1111C12.8889 19.3469 12.9825 19.573 13.1492 19.7397C13.3159 19.9064 13.542 20 13.7778 20H19.1111C19.3469 20 19.573 19.9064 19.7397 19.7397C19.9064 19.573 20 19.3469 20 19.1111V13.7778C20 13.542 19.9064 13.3159 19.7397 13.1492C19.573 12.9825 19.3469 12.8889 19.1111 12.8889H13.7778C13.542 12.8889 13.3159 12.9825 13.1492 13.1492C12.9825 13.3159 12.8889 13.542 12.8889 13.7778V19.1111ZM14.6667 14.6667H18.2222V18.2222H14.6667V14.6667Z"
        fill="black" />
</svg>
