<svg fill="none" height="24" viewBox="0 0 24 24" width="24" xmlns="http://www.w3.org/2000/svg">
    <path clip-rule="evenodd"
        d="M5 10.0504C5.008 10.0256 5.032 10.0041 5.072 9.98772L12 4L18.892 10.2146C18.964 10.2483 19 10.2777 19 10.3114V18.7328C19 19.7728 18.8116 19.9942 17.8 19.9942L17.7953 18.9942L17.8 18.9942C17.8753 18.9942 17.9393 18.9928 17.9939 18.9901C17.9979 18.9196 18 18.8351 18 18.7328V10.7568L11.986 5.33386L6 10.5074V18.7323C6 18.8348 6.0021 18.9196 6.00611 18.9904C6.06087 18.9929 6.12487 18.9942 6.2 18.9942H9C9.07498 18.9942 9.13902 18.9929 9.19402 18.9906C9.19794 18.9194 9.2 18.8342 9.2 18.7315V14.3643H14.8V18.7445C14.8 18.8421 14.802 18.9233 14.8057 18.9914C14.8597 18.9935 14.9224 18.9945 14.9958 18.9942L15.3542 18.9927L15.3625 18.9995C15.3892 18.9996 15.4173 18.9996 15.4466 18.9997C15.7074 19.0003 16.055 18.9999 16.4037 18.9991C16.752 18.9983 17.0999 18.9971 17.3608 18.996L17.7953 18.9942L17.8 19.9942C17.8 19.9942 15.016 20.0072 15 19.9942C14.004 19.9984 13.8 19.801 13.8 18.7445V15.3643H10.2V18.7315C10.2 19.8002 10.004 19.9942 9 19.9942H6.2C5.196 19.9942 5 19.7884 5 18.7323V10.0504Z"
        fill="black" fill-rule="evenodd" />
</svg>
