<svg fill="none" height="24" viewBox="0 0 24 24" width="24" xmlns="http://www.w3.org/2000/svg">
    <path
        d="M19.1805 9.35911L14.8112 8.69357L12.8583 4.55658C12.5084 3.81917 11.4946 3.80979 11.1417 4.55658L9.18879 8.69357L4.81945 9.35911C4.0359 9.47784 3.72188 10.4871 4.29011 11.0651L7.45122 14.2835L6.70356 18.8298C6.56898 19.6516 7.39739 20.2671 8.09122 19.8828L12 17.7362L15.9088 19.8828C16.6026 20.264 17.431 19.6516 17.2964 18.8298L16.5488 14.2835L19.7099 11.0651C20.2781 10.4871 19.9641 9.47784 19.1805 9.35911ZM15.0086 13.7586L15.7174 18.083L12 16.0427L8.28262 18.083L8.99141 13.7586L5.98281 10.6964L10.1398 10.0653L12 6.12826L13.8602 10.0653L18.0172 10.6964L15.0086 13.7586Z"
        fill="black" />
</svg>
