<svg fill="none" height="24" viewBox="0 0 24 24" width="24" xmlns="http://www.w3.org/2000/svg">
    <path
        d="M19.2727 10.5163H15.7891L12.6036 5.33193C12.4655 5.11064 12.2327 5 12 5C11.7673 5 11.5345 5.11064 11.3964 5.33983L8.21091 10.5163H4.72727C4.32727 10.5163 4 10.872 4 11.3066C4 11.3778 4.00727 11.4489 4.02909 11.52L5.87636 18.8462C6.04364 19.51 6.60364 20 7.27273 20H16.7273C17.3964 20 17.9564 19.51 18.1309 18.8462L19.9782 11.52L20 11.3066C20 10.872 19.6727 10.5163 19.2727 10.5163ZM12 7.19705L14.0364 10.5163H9.96364L12 7.19705ZM16.7273 18.4194L7.28 18.4273L5.68 12.0969H18.3273L16.7273 18.4194ZM12 13.6776C11.2 13.6776 10.5455 14.3888 10.5455 15.2582C10.5455 16.1275 11.2 16.8388 12 16.8388C12.8 16.8388 13.4545 16.1275 13.4545 15.2582C13.4545 14.3888 12.8 13.6776 12 13.6776Z"
        fill="black" />
</svg>
