<svg fill="none" height="24" viewBox="0 0 24 24" width="24" xmlns="http://www.w3.org/2000/svg">
    <path
        d="M12 4C10.9538 4 10.1538 4.8 10.1538 5.84615V9.53846C10.1538 10.5846 10.9538 11.3846 12 11.3846H15.6923L18.1538 13.8462V11.3846C19.2 11.3846 20 10.5846 20 9.53846V5.84615C20 4.8 19.2 4 18.1538 4H12ZM14.5772 5.84615H15.6345L16.6732 9.53846H15.7502L15.4997 8.61538H14.5766L14.3465 9.53846H13.5385L14.5772 5.84615ZM15.0769 6.46154C15.0154 6.70769 14.9465 7.008 14.8843 7.19262L14.712 8H15.4425L15.2689 7.192C15.1465 7.008 15.0769 6.70769 15.0769 6.46154ZM5.84615 10.1538C4.8 10.1538 4 10.9538 4 12V15.6923C4 16.7385 4.8 17.5385 5.84615 17.5385V20L8.30769 17.5385H12C13.0462 17.5385 13.8462 16.7385 13.8462 15.6923V12H12C10.8308 12 9.904 11.2 9.59631 10.1538H5.84615ZM8.67323 11.9422C9.71938 11.9422 10.2117 12.8037 10.2117 13.7883C10.2117 14.6498 9.91569 15.1963 9.42338 15.4425C9.66954 15.5655 9.96123 15.6308 10.2689 15.6923L10.0388 16.3077C9.608 16.1846 9.16123 15.9926 8.73046 15.8074C8.66892 15.7458 8.56123 15.7502 8.49969 15.7502C7.76123 15.6886 7.07692 15.0769 7.07692 13.8462C7.07692 12.8 7.68862 11.9422 8.67323 11.9422ZM8.67323 12.6154C8.18092 12.6154 7.94215 13.1692 7.94215 13.8462C7.94215 14.5846 8.18092 15.0769 8.67323 15.0769C9.16554 15.0769 9.42277 14.5231 9.42277 13.8462C9.42277 13.1692 9.16554 12.6154 8.67323 12.6154Z"
        fill="black" />
</svg>
