<svg fill="none" height="24" viewBox="0 0 24 24" width="24" xmlns="http://www.w3.org/2000/svg">
    <path
        d="M7.34267 16.8H19V5.6C19 4.7176 18.3023 4 17.4444 4H7.33333C6.39533 4 5 4.6392 5 6.4V17.6C5 19.3608 6.39533 20 7.33333 20H19V18.4H7.34267C6.98333 18.3904 6.55556 18.2448 6.55556 17.6C6.55556 17.5192 6.56256 17.4472 6.57422 17.3816C6.66133 16.9208 7.02844 16.808 7.34267 16.8ZM9.39289 8.5136C9.71662 8.18485 10.1532 8.00052 10.6082 8.00052C11.0631 8.00052 11.4997 8.18485 11.8234 8.5136L11.9977 8.6888L12.1711 8.5136C12.495 8.1848 12.9317 8.00045 13.3868 8.00045C13.8418 8.00045 14.2786 8.1848 14.6024 8.5136C14.7631 8.67252 14.8909 8.86316 14.9782 9.0741C15.0655 9.28504 15.1105 9.51194 15.1105 9.7412C15.1105 9.97046 15.0655 10.1974 14.9782 10.4083C14.8909 10.6192 14.7631 10.8099 14.6024 10.9688L11.9984 13.6L9.39367 10.9688C9.23287 10.81 9.10492 10.6194 9.01749 10.4085C8.93006 10.1976 8.88495 9.97066 8.88488 9.74137C8.88481 9.51208 8.92977 9.28514 9.01706 9.07416C9.10436 8.86318 9.23219 8.67251 9.39289 8.5136Z"
        fill="black" />
</svg>
