<svg fill="none" height="24" viewBox="0 0 24 24" width="24" xmlns="http://www.w3.org/2000/svg">
    <path
        d="M9.35714 4H15.6429C16.268 4 16.8676 4.25286 17.3096 4.70296C17.7517 5.15306 18 5.76352 18 6.40006V18.4003C17.9999 18.7105 17.9113 19.014 17.7449 19.2738C17.5785 19.5337 17.3416 19.7387 17.0628 19.8639C16.7841 19.9891 16.4757 20.0291 16.175 19.979C15.8744 19.929 15.5945 19.791 15.3694 19.582L13.0296 17.4083C12.8848 17.2738 12.6959 17.1993 12.5 17.1993C12.3041 17.1993 12.1152 17.2738 11.9704 17.4083L9.63057 19.582C9.40552 19.791 9.12564 19.929 8.82499 19.979C8.52434 20.0291 8.21588 19.9891 7.93716 19.8639C7.65843 19.7387 7.42146 19.5337 7.25507 19.2738C7.08869 19.014 7.00007 18.7105 7 18.4003V6.40006C7 5.76352 7.24834 5.15306 7.69039 4.70296C8.13244 4.25286 8.73199 4 9.35714 4Z"
        fill="black" />
</svg>
