<svg fill="none" height="24" viewBox="0 0 24 24" width="24" xmlns="http://www.w3.org/2000/svg">
    <path
        d="M19.9577 9.74401C19.9074 9.59592 19.8149 9.4658 19.6915 9.36971C19.5681 9.27362 19.4192 9.21576 19.2633 9.20328L14.7025 8.84093L12.7289 4.47271C12.666 4.33202 12.5638 4.21252 12.4345 4.12864C12.3052 4.04476 12.1544 4.00008 12.0003 4C11.8462 3.99992 11.6954 4.04443 11.566 4.12817C11.4366 4.2119 11.3343 4.33129 11.2713 4.47191L9.29765 8.84093L4.73683 9.20328C4.58359 9.21542 4.43709 9.27144 4.31487 9.36465C4.19264 9.45785 4.09986 9.58429 4.04762 9.72884C3.99538 9.87339 3.98589 10.0299 4.0203 10.1797C4.0547 10.3295 4.13154 10.4662 4.24162 10.5735L7.61204 13.8587L6.42004 19.0196C6.38384 19.1758 6.39544 19.3393 6.45333 19.4888C6.51122 19.6384 6.61273 19.7671 6.74468 19.8582C6.87663 19.9494 7.03293 19.9988 7.19331 20C7.35368 20.0012 7.51072 19.9542 7.64404 19.8651L12.0001 16.9615L16.3561 19.8651C16.4924 19.9555 16.6531 20.0021 16.8166 19.9985C16.9801 19.9949 17.1386 19.9414 17.2708 19.845C17.403 19.7487 17.5025 19.6142 17.5559 19.4596C17.6093 19.305 17.6142 19.1378 17.5697 18.9804L16.1065 13.8611L19.7353 10.5959C19.9729 10.3815 20.0601 10.0472 19.9577 9.74401Z"
        fill="black" />
    <path clip-rule="evenodd"
        d="M7.64404 19.8651L12.0001 16.9615L16.3561 19.8651C16.4924 19.9555 16.6531 20.0021 16.8166 19.9985C16.9801 19.9949 17.1386 19.9414 17.2708 19.845C17.403 19.7487 17.5025 19.6142 17.5559 19.4596C17.6093 19.305 17.6142 19.1378 17.5697 18.9804L16.1065 13.8611L19.7353 10.5959C19.9729 10.3815 20.0601 10.0472 19.9577 9.74401C19.9074 9.59592 19.8149 9.4658 19.6915 9.36971C19.5681 9.27362 19.4192 9.21576 19.2633 9.20328L14.7025 8.84093L12.7289 4.47271C12.666 4.33202 12.5638 4.21252 12.4345 4.12864C12.3052 4.04476 12.1544 4.00008 12.0003 4C11.8462 3.99992 11.6954 4.04443 11.566 4.12817C11.4366 4.2119 11.3343 4.33129 11.2713 4.47191L9.29765 8.84093L4.73683 9.20328C4.58359 9.21542 4.43709 9.27144 4.31487 9.36465C4.19264 9.45785 4.09986 9.58429 4.04762 9.72884C3.99538 9.87339 3.98589 10.0299 4.0203 10.1797C4.0547 10.3295 4.13154 10.4662 4.24162 10.5735L7.61204 13.8587L6.42004 19.0196C6.38384 19.1758 6.39544 19.3393 6.45333 19.4888C6.51122 19.6384 6.61273 19.7671 6.74468 19.8582C6.87663 19.9494 7.03293 19.9988 7.19331 20C7.35368 20.0012 7.51072 19.9542 7.64404 19.8651ZM18.721 10.1633L14.0344 9.79101L11.9999 5.28801L9.96577 9.791L5.25544 10.1652L8.71304 13.5354L7.50766 18.7542L12.0001 15.7597L16.4585 18.7316L14.9734 13.5354L18.721 10.1633Z"
        fill="black" fill-rule="evenodd" />
</svg>
