<svg fill="none" height="24" viewBox="0 0 24 24" width="24" xmlns="http://www.w3.org/2000/svg">
    <path
        d="M5.072 9.98772C5.032 10.0041 5.008 10.0256 5 10.0504L5.072 9.98772ZM5 10.0504V18.7323C5 19.7884 5.196 19.9942 6.2 19.9942H9C10.004 19.9942 10.2 19.8002 10.2 18.7315V15.3643H13.8V18.7445C13.8 19.801 14.004 19.9984 15 19.9942C15.016 20.0072 17.8 19.9942 17.8 19.9942C18.8116 19.9942 19 19.7728 19 18.7328V10.3114C19 10.2777 18.964 10.2483 18.892 10.2146L12 4L5.072 9.98772L5 10.0504Z"
        fill="black" />
</svg>
