<svg fill="none" height="24" viewBox="0 0 24 24" width="24" xmlns="http://www.w3.org/2000/svg">
    <path
        d="M19.2727 10.5324H15.7891L12.5964 5.34891C12.5298 5.24151 12.44 5.15351 12.3347 5.09267C12.2294 5.03182 12.112 5 11.9927 5C11.8735 5 11.756 5.03182 11.6507 5.09267C11.5455 5.15351 11.4556 5.24151 11.3891 5.34891L8.19636 10.5324H4.72727C4.32727 10.5324 4 10.8874 4 11.3214C4 11.3924 4.00727 11.4634 4.02909 11.5344L5.87636 18.8481C6.04364 19.5108 6.60364 20 7.27273 20H16.7273C17.3964 20 17.9564 19.5108 18.1309 18.8481L19.9782 11.5344L20 11.3214C20 10.8874 19.6727 10.5324 19.2727 10.5324ZM11.9927 7.21087L14.0364 10.5324H9.94909L11.9927 7.21087ZM12 16.8441C11.2 16.8441 10.5455 16.1341 10.5455 15.2662C10.5455 14.3983 11.2 13.6883 12 13.6883C12.8 13.6883 13.4545 14.3983 13.4545 15.2662C13.4545 16.1341 12.8 16.8441 12 16.8441Z"
        fill="black" />
</svg>
