<svg fill="none" height="24" viewBox="0 0 24 24" width="24" xmlns="http://www.w3.org/2000/svg">
    <path clip-rule="evenodd"
        d="M4.09288 5.57912C4.25674 5.22596 4.61067 5 5 5H19C19.3893 5 19.7433 5.22596 19.9071 5.57912C20.071 5.93229 20.015 6.34845 19.7636 6.64573L14.4 12.9881V18.6C14.4 18.9466 14.2205 19.2684 13.9257 19.4507C13.6309 19.6329 13.2628 19.6494 12.9528 19.4944L10.1528 18.0944C9.814 17.925 9.6 17.5788 9.6 17.2V12.9881L4.23643 6.64573C3.98503 6.34845 3.92902 5.93229 4.09288 5.57912ZM7.1553 7L11.3636 11.9763C11.5162 12.1568 11.6 12.3856 11.6 12.622V16.582L12.4 16.982V12.622C12.4 12.3856 12.4838 12.1568 12.6364 11.9763L16.8447 7H7.1553Z"
        fill="black" fill-rule="evenodd" />
</svg>
