<svg fill="none" height="24" viewBox="0 0 24 24" width="24" xmlns="http://www.w3.org/2000/svg">
    <path
        d="M11.993 4.34119C7.6459 4.33943 4.125 7.85857 4.125 12.2021C4.125 15.6369 6.32754 18.5566 9.39492 19.6289C9.80801 19.7326 9.74473 19.439 9.74473 19.2386V17.8763C7.35937 18.1558 7.26269 16.5773 7.10273 16.3136C6.7793 15.7617 6.01465 15.6211 6.24316 15.3574C6.78633 15.0779 7.34004 15.4277 7.98164 16.3752C8.4457 17.0625 9.35098 16.9465 9.80976 16.8322C9.90996 16.4191 10.1244 16.05 10.4197 15.7635C7.94824 15.3205 6.91816 13.8123 6.91816 12.0193C6.91816 11.1492 7.20469 10.3494 7.76719 9.70427C7.40859 8.6408 7.80059 7.73025 7.85332 7.5949C8.87461 7.50349 9.93633 8.32615 10.0189 8.39119C10.599 8.23474 11.2617 8.15212 12.0035 8.15212C12.7488 8.15212 13.4133 8.23826 13.9986 8.39646C14.1973 8.24529 15.1816 7.53865 16.1309 7.62478C16.1818 7.76013 16.565 8.64959 16.2275 9.699C16.7971 10.3459 17.0871 11.1527 17.0871 12.0246C17.0871 13.8211 16.05 15.331 13.5715 15.767C13.7838 15.9757 13.9523 16.2247 14.0673 16.4994C14.1823 16.774 14.2414 17.0688 14.2412 17.3666V19.3441C14.2553 19.5023 14.2412 19.6588 14.5049 19.6588C17.618 18.6094 19.8592 15.6685 19.8592 12.2039C19.8592 7.85857 16.3365 4.34119 11.993 4.34119Z"
        fill="black" />
</svg>
