<svg fill="none" height="24" viewBox="0 0 24 24" width="24" xmlns="http://www.w3.org/2000/svg">
    <path
        d="M6.42004 19.0201C6.39263 19.1374 6.39213 19.2594 6.41859 19.377C6.44505 19.4945 6.49778 19.6046 6.57282 19.6988C6.64786 19.7931 6.74327 19.8692 6.85189 19.9213C6.96052 19.9735 7.07954 20.0004 7.20004 20C7.35807 20 7.51256 19.9533 7.64404 19.8656L12.0001 16.9619L16.3561 19.8656C16.4924 19.9561 16.6531 20.0026 16.8166 19.9991C16.9801 19.9955 17.1386 19.9419 17.2708 19.8456C17.403 19.7492 17.5025 19.6147 17.5559 19.4601C17.6093 19.3055 17.6142 19.1383 17.5697 18.9809L16.1065 13.8614L19.7353 10.5961C19.8515 10.4915 19.9345 10.3551 19.974 10.2038C20.0136 10.0525 20.0079 9.8929 19.9576 9.7448C19.9074 9.5967 19.8149 9.46657 19.6915 9.3705C19.5681 9.27443 19.4192 9.21664 19.2633 9.20426L14.7025 8.8411L12.7289 4.47273C12.666 4.33203 12.5638 4.21253 12.4345 4.12865C12.3052 4.04476 12.1544 4.00008 12.0003 4C11.8462 3.99992 11.6954 4.04443 11.566 4.12817C11.4366 4.21191 11.3343 4.3313 11.2713 4.47193L9.29765 8.8411L4.73683 9.20346C4.58359 9.2156 4.43709 9.27162 4.31487 9.36483C4.19264 9.45804 4.09986 9.58448 4.04762 9.72903C3.99538 9.87358 3.98589 10.0301 4.0203 10.1799C4.0547 10.3297 4.13154 10.4664 4.24162 10.5737L7.61284 13.859L6.42004 19.0201ZM12.0001 6.7445L13.6337 10.3609L14.1041 10.3985H14.1049L17.2825 10.6505L14.6657 13.0055L14.6649 13.0071L14.2945 13.3399L14.4313 13.8174V13.8198L15.4337 17.3275L12.0001 15.0389V6.7445Z"
        fill="black" />
</svg>
