<svg fill="none" height="24" viewBox="0 0 24 24" width="24" xmlns="http://www.w3.org/2000/svg">
    <path
        d="M12 7.20001C11.1656 7.20107 10.3657 7.53299 9.77573 8.12298C9.18575 8.71297 8.85383 9.51286 8.85277 10.3472H10.4528C10.4528 9.49362 11.1472 8.80002 12 8.80002C12.8528 8.80002 13.5472 9.49362 13.5472 10.3472C13.5472 10.8256 13.1624 11.1728 12.5744 11.648C12.3823 11.7985 12.1978 11.9584 12.0216 12.1272C11.2232 12.9248 11.2 13.772 11.2 13.8664V14.4H12.8L12.7992 13.8936C12.8 13.8808 12.8256 13.5848 13.152 13.2592C13.272 13.1392 13.4232 13.0192 13.58 12.8928C14.2032 12.388 15.1464 11.6256 15.1464 10.3472C15.1458 9.51286 14.8141 8.71285 14.2242 8.12279C13.6343 7.53274 12.8343 7.20086 12 7.20001ZM11.2 15.2H12.8V16.8H11.2V15.2Z"
        fill="black" />
    <path
        d="M12 4C7.58881 4 4 7.58881 4 12C4 16.4112 7.58881 20.0001 12 20.0001C16.4112 20.0001 20.0001 16.4112 20.0001 12C20.0001 7.58881 16.4112 4 12 4ZM12 18.4C8.47122 18.4 5.60001 15.5288 5.60001 12C5.60001 8.47122 8.47122 5.60001 12 5.60001C15.5288 5.60001 18.4001 8.47122 18.4001 12C18.4001 15.5288 15.5288 18.4 12 18.4Z"
        fill="black" />
</svg>
