<svg fill="none" height="24" viewBox="0 0 24 24" width="24" xmlns="http://www.w3.org/2000/svg">
    <path
        d="M19.894 11.7099C19.249 10.3509 18.4813 9.24256 17.5911 8.3849L16.6575 9.31853C17.4188 10.0461 18.082 10.9979 18.6554 12.1833C17.1287 15.3431 14.9616 16.8441 12 16.8441C11.111 16.8441 10.2922 16.7072 9.54352 16.4334L8.5319 17.445C9.57172 17.9252 10.7277 18.1653 12 18.1653C15.5268 18.1653 18.1581 16.3285 19.894 12.6549C19.9638 12.5071 20 12.3458 20 12.1824C20 12.019 19.9638 11.8576 19.894 11.7099ZM18.7275 5.82622L17.9453 5.04305C17.9317 5.0294 17.9155 5.01858 17.8976 5.01119C17.8798 5.0038 17.8607 5 17.8414 5C17.8221 5 17.803 5.0038 17.7852 5.01119C17.7674 5.01858 17.7512 5.0294 17.7376 5.04305L15.7307 7.04904C14.6242 6.48387 13.3806 6.20129 12 6.20129C8.47318 6.20129 5.84184 8.03809 4.10596 11.7117C4.03619 11.8594 4 12.0208 4 12.1842C4 12.3476 4.03619 12.509 4.10596 12.6567C4.79946 14.1173 5.63437 15.2881 6.61069 16.169L4.66893 18.1102C4.64142 18.1378 4.62597 18.1751 4.62597 18.214C4.62597 18.2529 4.64142 18.2902 4.66893 18.3178L5.45228 19.1011C5.4798 19.1286 5.51713 19.1441 5.55604 19.1441C5.59496 19.1441 5.63228 19.1286 5.65981 19.1011L18.7275 6.03394C18.7412 6.0203 18.752 6.00411 18.7594 5.98629C18.7668 5.96847 18.7706 5.94937 18.7706 5.93008C18.7706 5.91079 18.7668 5.89168 18.7594 5.87386C18.752 5.85604 18.7412 5.83985 18.7275 5.82622ZM5.34456 12.1833C6.87309 9.02347 9.04019 7.52246 12 7.52246C13.0008 7.52246 13.9107 7.69421 14.7363 8.04341L13.4463 9.33339C12.8354 9.00743 12.1359 8.88646 11.451 8.98832C10.7661 9.09018 10.132 9.40947 9.64241 9.8991C9.15278 10.3887 8.83349 11.0228 8.73163 11.7077C8.62977 12.3926 8.75075 13.0921 9.0767 13.703L7.54597 15.2337C6.69877 14.486 5.96845 13.4729 5.34456 12.1833ZM9.87143 12.1833C9.87175 11.8597 9.94839 11.5408 10.0951 11.2524C10.2419 10.964 10.4546 10.7143 10.7159 10.5236C10.9773 10.3328 11.28 10.2064 11.5994 10.1547C11.9188 10.1029 12.2459 10.1272 12.5542 10.2256L9.96886 12.8108C9.90407 12.608 9.87119 12.3963 9.87143 12.1833Z"
        fill="black" />
    <path
        d="M11.9266 14.2384C11.8631 14.2384 11.8006 14.2355 11.7385 14.2298L10.7693 15.199C11.3523 15.4223 11.9874 15.4719 12.5979 15.3419C13.2085 15.2118 13.7683 14.9077 14.2097 14.4663C14.6511 14.0249 14.9552 13.4651 15.0852 12.8546C15.2153 12.244 15.1656 11.6089 14.9424 11.0259L13.9732 11.9952C13.9789 12.0572 13.9818 12.1198 13.9818 12.1833C13.9819 12.4532 13.9289 12.7205 13.8256 12.9699C13.7224 13.2193 13.571 13.4459 13.3802 13.6368C13.1893 13.8277 12.9627 13.979 12.7133 14.0823C12.4639 14.1855 12.1966 14.2386 11.9266 14.2384Z"
        fill="black" />
</svg>
