<svg fill="none" height="24" viewBox="0 0 24 24" width="24" xmlns="http://www.w3.org/2000/svg">
    <path
        d="M20 15.9117L19.8256 15.8093C19.8123 15.8016 18.4797 15.0109 18.1485 14.0515L18.0747 13.8389L17.9381 14.0173C17.9339 14.0229 17.7445 14.2571 17.2147 14.5317C16.8224 12.2989 15.488 9.63333 13.7344 8.4968C14.2357 8.53733 14.7387 8.49573 15.224 8.3192C15.5163 8.21307 15.3901 7.7368 15.0952 7.84453C14.6973 7.98933 14.2987 8.0288 13.9008 8.00853C14.8776 7.11333 15.6445 5.74133 15.6445 4.73813C15.6445 4.49707 15.6445 4.04827 15.2872 4.04827C15.1437 4.04827 15.0277 4.13787 14.8675 4.2616C14.6216 4.4512 14.2504 4.73813 13.7051 4.73813C13.4973 4.73813 13.1171 4.51893 12.8115 4.34293C12.4421 4.1304 12.2061 4 12.0077 4C11.6792 4 11.1963 4.2656 10.7701 4.5C10.5968 4.5952 10.3597 4.72587 10.3107 4.7384C9.69307 4.7384 9.3344 4.4536 9.09653 4.26507C8.95787 4.15467 8.85733 4.07467 8.7232 4.07467C8.37173 4.07467 8.37173 4.49627 8.37173 4.98453C8.37173 5.92693 9.0896 7.17093 10.0296 8.00693C9.43733 8.04933 8.85333 8.22827 8.44293 8.62587C8.21627 8.84507 8.55973 9.1928 8.7856 8.97413C9.12667 8.64347 9.57387 8.50187 10.0523 8.4744C10.0659 8.5232 10.0824 8.5712 10.1027 8.6184C8.0984 10.0587 6.67467 13.4787 6.67467 15.7875C6.67467 16.0152 6.69227 16.2213 6.71947 16.4155C6.20267 16.1859 6.01413 15.9845 6.0104 15.98L5.8728 15.8213L5.80507 16.0213C5.5056 16.9024 4.20373 17.6667 4.19067 17.6744L4 17.7851L4.19387 17.8899C4.26187 17.9267 4.32933 17.9589 4.39733 17.9939L4.27467 18.0789L4.33947 18.8896L9.42027 20L11.3467 18.7677C11.5411 18.7688 11.7379 18.7693 11.9381 18.7693L14.1899 20L19.2803 18.4V17.5443L19.1456 17.4635C19.2128 17.4208 19.28 17.3773 19.3469 17.3325L19.5253 17.2133L19.4861 17.1941L19.7131 17.132L19.7515 16.2424L19.6203 16.1493C19.6901 16.1075 19.7597 16.0648 19.8296 16.0205L20 15.9117ZM8.8568 4.98453C8.8568 4.86613 8.8584 4.77387 8.8608 4.70213C8.9016 4.73413 8.94907 4.76907 8.99973 4.80507C9.1552 5.17733 9.44933 5.71333 9.948 6.05093C10.5539 6.4616 10.4733 5.9896 10.7965 5.55867C11.1197 5.128 11.3384 4.9024 11.8797 6.01013C12.1157 6.49307 12.5091 5.14347 12.8829 4.9464C12.9819 5.00027 13.0805 5.0504 13.1773 5.09307C13.8477 6.1832 14.1584 5.8432 14.7539 4.93707C14.9176 4.84107 15.052 4.73813 15.1589 4.65573C15.1595 4.68053 15.16 4.708 15.16 4.73867C15.16 5.59467 14.4605 6.8224 13.604 7.6232C13.5636 7.52043 13.5056 7.42542 13.4328 7.3424C13.0869 6.95067 12.5464 7.38507 12.2901 7.67013C11.8355 7.524 11.0947 7.1216 10.612 7.352C10.4918 7.40776 10.3814 7.4826 10.2851 7.5736C9.49573 6.85413 8.8568 5.81547 8.8568 4.98453ZM13.1779 7.91093C13.0583 7.88558 12.9394 7.85713 12.8213 7.8256C12.9701 7.69733 13.1067 7.65253 13.164 7.8432C13.1701 7.864 13.1739 7.88773 13.1779 7.91093ZM11.1512 8.07653C11.0629 8.05973 10.9723 8.04453 10.8789 8.03253C10.8082 7.98817 10.7389 7.94148 10.6712 7.89253C10.9149 7.72907 11.3352 7.816 11.7368 7.95227C11.5387 7.97227 11.3432 8.01547 11.1512 8.07653ZM11.2723 8.78053C11.1229 8.81787 10.9603 8.80293 10.8197 8.74693C10.8768 8.7168 10.9344 8.69067 10.992 8.66427C11.0853 8.70933 11.1787 8.74693 11.2723 8.78053ZM6.33973 18.5011C5.7037 18.3169 5.08655 18.0728 4.49653 17.7723C4.8584 17.5344 5.64667 16.9592 5.9672 16.268C6.18693 16.4405 6.69413 16.7552 7.68187 16.9968C7.66507 17.024 7.64453 17.0531 7.6248 17.0816C6.7816 16.8608 6.30213 16.5816 6.2944 16.5768L6.17813 16.5075L6.1224 16.632C6.04907 16.7952 5.87707 16.8197 5.78133 16.8197C5.75467 16.8197 5.7368 16.8179 5.7344 16.8176L5.6392 16.8037L5.60453 16.8949C5.5336 17.0811 5.2424 17.3243 5.13573 17.4024L4.9576 17.5331L5.16133 17.6165C5.23707 17.6475 5.2576 17.676 5.25867 17.6835C5.26133 17.7019 5.22907 17.7504 5.19467 17.7784L5.03947 17.9035L5.22 17.9869C5.58987 18.1576 6.0088 18.2989 6.42773 18.4155C6.3944 18.4483 6.3656 18.4763 6.33973 18.5011ZM8.49013 17.5075C8.86293 17.5597 9.276 17.5928 9.7272 17.5928H9.72747C9.82133 17.5928 9.91653 17.5912 10.0136 17.5883C10.0201 17.6084 10.0293 17.6275 10.0411 17.6451C10.0648 17.6811 10.0968 17.7109 10.1373 17.7341L9.4568 18.3157C9.44383 18.3152 9.43085 18.3149 9.41787 18.3149C9.11467 18.3149 8.88853 18.4264 8.78 18.6248C8.36879 18.5723 7.95949 18.5059 7.5528 18.4256C7.87972 18.1347 8.19252 17.8283 8.49013 17.5075ZM5.46373 17.8267C5.4904 17.7763 5.50773 17.7152 5.4984 17.6485C5.48954 17.5884 5.4607 17.533 5.41653 17.4912C5.53627 17.3885 5.70133 17.2301 5.792 17.0661C5.99813 17.0632 6.16827 16.9851 6.27547 16.8469C6.456 16.9413 6.86267 17.132 7.46347 17.2973C7.21787 17.6053 6.88693 17.9547 6.6296 18.2144C6.22853 18.1083 5.82453 17.9803 5.46373 17.8267ZM9.264 18.9491L9.20933 18.9493C8.97973 18.9493 8.21893 18.9307 7.21387 18.7213C7.24907 18.6915 7.2856 18.6608 7.31947 18.6315C8.13493 18.8019 8.79253 18.8749 8.84187 18.8805L8.93947 18.8909L8.9696 18.7963C9.03547 18.592 9.2784 18.5619 9.4176 18.5619C9.45573 18.5619 9.48107 18.5643 9.484 18.5645L9.53573 18.5701L10.7179 17.56L10.4019 17.5496C10.2963 17.5459 10.2517 17.5221 10.2408 17.5059L10.3077 17.3307L10.1227 17.3384C9.98773 17.3443 9.856 17.3472 9.7272 17.3472H9.72693C9.35467 17.3472 9.00933 17.3227 8.69013 17.284L8.76427 17.1965C9.40853 17.2827 10.18 17.3357 11.1115 17.3291C10.8891 17.6411 10.3344 18.3043 9.264 18.9491ZM11.9371 17.7904V18.2771C11.7853 18.2771 11.6376 18.2765 11.4931 18.2755L11.4496 17.7277L11.0885 17.7571C11.3317 17.4696 11.4355 17.2779 11.4448 17.2605L11.5427 17.0755L11.336 17.0792C9.35787 17.1155 8.06773 16.8797 7.25333 16.6179C7.19387 16.3773 7.15947 16.1053 7.15947 15.7877C7.15947 13.6216 8.54373 10.3475 10.3816 9.02053C10.7072 9.33547 11.2011 9.47333 11.6704 9.16693C11.7733 9.09973 11.8629 9.01173 11.9469 8.91813C11.9669 8.91867 11.9875 8.9232 12.0077 8.9232C12.0749 8.9232 12.1432 8.9176 12.2112 8.90907C12.2973 8.94347 12.3816 8.97813 12.4597 9.01253C12.8339 9.17733 13.1533 9.07493 13.3715 8.84773C15.0549 9.8664 16.4037 12.5611 16.7587 14.7392C15.9891 15.0469 14.7683 15.3472 12.8947 15.4C13.2643 15.1888 13.5416 14.8336 13.4419 14.3669C13.3371 13.8736 12.9248 13.7349 12.4979 13.7123C12.4968 13.4805 12.4968 13.2493 12.4984 13.0176C12.6293 13.0755 12.7549 13.1421 12.8691 13.2133C13.0707 13.34 13.2531 13.0117 13.0528 12.8851C12.8792 12.7759 12.6938 12.6865 12.5003 12.6187C12.5029 12.3504 12.5043 12.0827 12.5043 11.8149C12.5045 11.5696 12.14 11.5696 12.14 11.8149C12.14 12.0504 12.1384 12.2856 12.1363 12.5205C11.9422 12.4867 11.7441 12.4834 11.5491 12.5107C11.5174 12.3342 11.4789 12.1589 11.4339 11.9853C11.3736 11.7491 11.0216 11.8491 11.0827 12.0861C11.1275 12.2565 11.164 12.4261 11.1941 12.5981C11.1787 12.604 11.1619 12.6069 11.1467 12.6139C10.6528 12.8093 10.3515 13.3077 10.7128 13.7725C10.8811 13.9891 11.1011 14.0765 11.3419 14.1056C11.3549 14.4264 11.3632 14.7475 11.3725 15.068C11.2112 14.9632 11.0643 14.8288 10.9312 14.6867C10.7664 14.5128 10.5091 14.7813 10.6736 14.9549C10.8973 15.1931 11.1323 15.3731 11.3869 15.4883C11.3984 15.7621 11.4147 16.0368 11.4413 16.3093C11.4648 16.5512 11.8296 16.5525 11.8059 16.3093C11.7834 16.0736 11.7668 15.8374 11.756 15.6008C11.8947 15.6248 12.0403 15.6309 12.1949 15.6163C12.2123 15.8685 12.2325 16.1208 12.2613 16.3731C12.2779 16.5176 12.416 16.5744 12.5179 16.5451L12.4952 17.0688C12.3347 17.0832 12.1709 17.0965 12.0003 17.1077L11.7971 17.1211L11.9053 17.296C11.9163 17.3136 12.0392 17.508 12.3136 17.7909H11.9371V17.7904ZM18.5739 16.0352C18.2387 16.1928 17.8147 16.3373 17.3827 16.4635C17.1171 16.1891 16.7773 15.8229 16.5237 15.4981C17.0888 15.3269 17.4051 15.1504 17.5477 15.0552C17.6605 15.1547 17.8099 15.2064 17.9867 15.2061C18.0453 15.2061 18.0973 15.2005 18.1373 15.1941C18.2653 15.36 18.4717 15.5515 18.6008 15.6659C18.5397 15.7285 18.5101 15.7979 18.5125 15.8728C18.5147 15.9368 18.5403 15.9912 18.5739 16.0352ZM16.6659 16.9115C16.7203 16.9595 16.7765 17.0085 16.8339 17.0581C15.7528 17.3448 14.9483 17.376 14.7731 17.3789C13.6536 16.696 13.0733 15.9733 12.8496 15.648C13.7864 15.6245 14.5608 15.5397 15.2067 15.4229C15.2329 15.4552 15.2595 15.4872 15.2864 15.5189C14.7673 15.5998 14.2441 15.6517 13.7192 15.6744L13.504 15.6835L13.6224 15.8645C13.6221 15.8648 13.5981 15.9096 13.4392 15.9405L13.1808 15.9909L14.4512 17.0195L14.5104 17.0035C14.5117 17.0032 14.6237 16.9731 14.7592 16.9731C14.9547 16.9731 15.0883 17.0325 15.1555 17.1488L15.1981 17.2224L15.2811 17.2077C15.7456 17.1231 16.2074 17.0243 16.6659 16.9115ZM12.9067 16.1277L12.6032 16.1112C12.5891 15.9597 12.5749 15.8083 12.5643 15.6568C12.6176 15.7453 12.7269 15.9117 12.9067 16.1277ZM12.5312 15.1515C12.5137 14.7925 12.5031 14.4332 12.4995 14.0739C12.5432 14.0755 12.5864 14.0795 12.6275 14.0853C13.0989 14.1568 13.2221 14.6811 12.8541 14.976C12.7581 15.052 12.6475 15.1077 12.5312 15.1515ZM15.3149 16.952C15.1955 16.8045 15.0053 16.7272 14.7595 16.7272C14.6568 16.7272 14.5664 16.7411 14.5093 16.7523L13.7107 16.1051C13.7771 16.0669 13.8219 16.0187 13.8464 15.9595C13.8524 15.9447 13.8571 15.9295 13.8603 15.9139C14.4933 15.8792 15.0267 15.816 15.4776 15.7387C15.6963 15.9827 16.0176 16.3192 16.4437 16.7104C15.9203 16.8349 15.4837 16.9203 15.3149 16.952ZM12.1347 14.0835C12.1397 14.4699 12.1493 14.8573 12.1699 15.2435C12.1355 15.2488 12.1016 15.2555 12.0677 15.2589C11.9531 15.272 11.8443 15.2624 11.7408 15.2363C11.7277 14.8629 11.7192 14.4888 11.7051 14.1152C11.8485 14.1085 11.9939 14.0944 12.1347 14.0835ZM11.6867 13.7461C11.67 13.4531 11.6424 13.1608 11.604 12.8699C11.7808 12.8456 11.9605 12.8547 12.1339 12.8968C12.132 13.1694 12.1315 13.442 12.1325 13.7147C12.0155 13.7211 11.9043 13.7323 11.8064 13.7411C11.7666 13.7442 11.7266 13.7459 11.6867 13.7461ZM11.3208 13.6995C11.2981 13.6933 11.2757 13.6885 11.2525 13.6808C11.1458 13.6446 11.0492 13.5837 10.9707 13.5029C10.7429 13.2904 11.0555 13.0819 11.2525 12.9829C11.2835 13.2203 11.3048 13.4597 11.3208 13.6995ZM14.264 18.8904C13.1064 18.2989 12.4853 17.6416 12.2387 17.3371C12.416 17.3237 12.5837 17.3077 12.7499 17.2909L14.648 18.5229L18.8107 17.3795C16.664 18.6733 14.5432 18.8704 14.264 18.8904ZM17.7019 16.7864C17.6677 16.7523 17.6269 16.7117 17.5787 16.6629C18.0523 16.5195 18.5104 16.3531 18.852 16.1701L19.0597 16.0584L18.8491 15.9512C18.8019 15.9269 18.7557 15.8824 18.7549 15.8656C18.7555 15.8592 18.7741 15.8251 18.8549 15.7787L19.0091 15.6901L18.872 15.576C18.8677 15.5725 18.4403 15.2176 18.2901 14.9891L18.2405 14.9144L18.1555 14.9392C18.1547 14.9392 18.0816 14.9603 17.9867 14.9603C17.84 14.9605 17.7301 14.9125 17.6597 14.8181L17.5819 14.7149L17.4843 14.7989C17.4792 14.8032 17.1771 15.0509 16.3667 15.2851C16.34 15.2466 16.3143 15.2075 16.2896 15.1677C17.2723 14.8699 17.7744 14.5093 17.992 14.312C18.3413 15.0677 19.1731 15.6765 19.5341 15.9152C18.9541 16.2662 18.3402 16.5581 17.7019 16.7864Z"
        fill="black" />
</svg>
