<svg fill="none" height="24" viewBox="0 0 24 24" width="24" xmlns="http://www.w3.org/2000/svg">
    <path
        d="M12 11.2C11.7878 11.2 11.5843 11.2843 11.4343 11.4343C11.2843 11.5843 11.2 11.7878 11.2 12V15.2C11.2 15.4122 11.2843 15.6157 11.4343 15.7657C11.5843 15.9157 11.7878 16 12 16C12.2122 16 12.4157 15.9157 12.5657 15.7657C12.7157 15.6157 12.8 15.4122 12.8 15.2V12C12.8 11.7878 12.7157 11.5843 12.5657 11.4343C12.4157 11.2843 12.2122 11.2 12 11.2ZM12.304 8.064C12.1092 7.98398 11.8908 7.98398 11.696 8.064C11.5978 8.10207 11.5081 8.15917 11.432 8.232C11.3613 8.30976 11.3045 8.39905 11.264 8.496C11.2192 8.59094 11.1973 8.69506 11.2 8.8C11.1994 8.90528 11.2196 9.00965 11.2594 9.10712C11.2992 9.20459 11.3579 9.29325 11.432 9.368C11.5098 9.43866 11.5991 9.49548 11.696 9.536C11.8172 9.58579 11.9488 9.60505 12.0792 9.59209C12.2095 9.57912 12.3348 9.53434 12.4438 9.46165C12.5528 9.38897 12.6423 9.29063 12.7044 9.17526C12.7665 9.05989 12.7993 8.93103 12.8 8.8C12.7971 8.58819 12.7142 8.38531 12.568 8.232C12.4919 8.15917 12.4022 8.10207 12.304 8.064ZM12 4C10.4178 4 8.87103 4.46919 7.55544 5.34824C6.23985 6.22729 5.21447 7.47672 4.60897 8.93853C4.00347 10.4003 3.84504 12.0089 4.15372 13.5607C4.4624 15.1126 5.22433 16.538 6.34315 17.6569C7.46197 18.7757 8.88743 19.5376 10.4393 19.8463C11.9911 20.155 13.5997 19.9965 15.0615 19.391C16.5233 18.7855 17.7727 17.7602 18.6518 16.4446C19.5308 15.129 20 13.5822 20 12C20 10.9494 19.7931 9.90914 19.391 8.93853C18.989 7.96793 18.3997 7.08601 17.6569 6.34315C16.914 5.60028 16.0321 5.011 15.0615 4.60896C14.0909 4.20693 13.0506 4 12 4ZM12 18.4C10.7342 18.4 9.49683 18.0246 8.44435 17.3214C7.39188 16.6182 6.57158 15.6186 6.08717 14.4492C5.60277 13.2797 5.47603 11.9929 5.72298 10.7514C5.96992 9.50994 6.57946 8.36957 7.47452 7.47452C8.36958 6.57946 9.50995 5.96992 10.7514 5.72297C11.9929 5.47603 13.2797 5.60277 14.4492 6.08717C15.6186 6.57157 16.6182 7.39187 17.3214 8.44435C18.0246 9.49682 18.4 10.7342 18.4 12C18.4 13.6974 17.7257 15.3252 16.5255 16.5255C15.3253 17.7257 13.6974 18.4 12 18.4Z"
        fill="black" />
</svg>
