<svg fill="none" height="24" viewBox="0 0 24 24" width="24" xmlns="http://www.w3.org/2000/svg">
    <path
        d="M14.1333 9.69492V4H4V14.3051H9.86667V20H20V9.69492H14.1333ZM5.06667 13.2203V5.08475H13.0667V9.69492H10.8444L9.72302 6.44068H8.41031L6.73636 11.2982H7.86631L8.13867 10.5085H9.86667V13.2203H5.06667ZM9.62062 9.42373H8.51271L9.06667 7.81541L9.62062 9.42373ZM18.9333 18.9153H10.9333V10.7797H18.9333V18.9153Z"
        fill="black" />
    <path
        d="M14.2993 15.2644C14.4163 15.4325 14.5319 15.5765 14.6563 15.7132L14.6496 15.7058C14.2467 15.9014 13.7891 15.9994 13.277 15.9999V17C14.1156 17 14.8644 16.8 15.4993 16.4119C16.1341 16.8 16.883 17 17.7215 17V15.9999C17.2104 15.9999 16.7531 15.9019 16.3496 15.7058C16.472 15.571 16.585 15.4296 16.6881 15.2824L16.7 15.2651C17.0151 14.8078 17.2479 14.3084 17.3896 13.7856L17.3978 13.7502H18V12.7501H16.0556V12H14.9444V12.7501H13V13.7502H13.6022C13.7458 14.2938 13.9862 14.8128 14.3141 15.2871L14.3 15.2651L14.2993 15.2644ZM16.2467 13.7489C16.1299 14.1017 15.9615 14.4389 15.7459 14.7517L15.757 14.7344C15.6771 14.85 15.5893 14.9611 15.4941 15.0671L15.4993 15.0611C15.4159 14.9689 15.3385 14.8725 15.2674 14.7724L15.2585 14.7597C15.0446 14.4542 14.8769 14.1244 14.76 13.7789L14.7511 13.7496L16.2467 13.7489Z"
        fill="#121721" />
</svg>
