<svg fill="none" height="24" viewBox="0 0 24 24" width="24" xmlns="http://www.w3.org/2000/svg">
    <path clip-rule="evenodd"
        d="M8.55161 7.54101C8.9422 7.93147 8.9423 8.56463 8.55184 8.95522C7.81074 9.69656 7.3061 10.641 7.10172 11.6691C6.89735 12.6973 7.00241 13.7629 7.40364 14.7313C7.80486 15.6997 8.48423 16.5275 9.35584 17.1098C10.2274 17.6921 11.2522 18.0029 12.3004 18.0029C13.3486 18.0029 14.3734 17.6921 15.245 17.1098C16.1166 16.5275 16.7959 15.6997 17.1972 14.7313C17.5984 13.7629 17.7034 12.6973 17.4991 11.6691C17.2947 10.641 16.7901 9.69656 16.049 8.95522C15.6585 8.56463 15.6586 7.93147 16.0492 7.54101C16.4398 7.15055 17.0729 7.15065 17.4634 7.54124C18.4841 8.56231 19.1792 9.86312 19.4607 11.2792C19.7422 12.6953 19.5975 14.163 19.0449 15.4968C18.4922 16.8307 17.5565 17.9707 16.356 18.7728C15.1555 19.5748 13.7442 20.0029 12.3004 20.0029C10.8566 20.0029 9.44526 19.5748 8.24476 18.7728C7.04427 17.9707 6.10856 16.8307 5.55594 15.4968C5.00332 14.163 4.85861 12.6953 5.1401 11.2792C5.4216 9.86312 6.11666 8.56231 7.1374 7.54124C7.52786 7.15065 8.16102 7.15055 8.55161 7.54101Z"
        fill="black" fill-rule="evenodd" />
    <path clip-rule="evenodd"
        d="M12.3039 4C12.8562 4 13.3039 4.44772 13.3039 5V12.0004C13.3039 12.5527 12.8562 13.0004 12.3039 13.0004C11.7516 13.0004 11.3039 12.5527 11.3039 12.0004V5C11.3039 4.44772 11.7516 4 12.3039 4Z"
        fill="black" fill-rule="evenodd" />
</svg>
