<svg fill="none" height="24" viewBox="0 0 24 24" width="24" xmlns="http://www.w3.org/2000/svg">
    <path
        d="M11.5337 16.0667C11.572 16.0999 11.6135 16.1331 11.6542 16.1655C10.8456 16.7104 9.89645 17.0005 8.92594 16.9996C8.27905 17.0001 7.63839 16.8712 7.04062 16.6202C6.44284 16.3692 5.89967 16.001 5.44217 15.5368C4.98467 15.0725 4.62182 14.5213 4.37436 13.9145C4.1269 13.3078 3.99969 12.6575 4 12.0008C3.99992 11.0964 4.24148 10.2089 4.69896 9.43282C5.15645 8.65673 5.81272 8.02112 6.5979 7.59368C7.38308 7.16625 8.26776 6.96298 9.15773 7.00554C10.0477 7.0481 10.9096 7.33488 11.6518 7.83535C11.6119 7.87017 11.572 7.90175 11.5417 7.93738C10.9667 8.4414 10.5053 9.0652 10.189 9.76638C9.87266 10.4675 9.70879 11.2296 9.70851 12.0008C9.70851 13.5597 10.373 15.0416 11.5337 16.0667ZM15.0126 7.00128C14.0429 6.99937 13.0945 7.28965 12.2876 7.83535C12.3266 7.87017 12.3665 7.90175 12.3968 7.93738C13.5631 8.96013 14.2308 10.4428 14.2308 12.0008C14.2308 13.5589 13.5647 15.0399 12.4056 16.0667C12.3665 16.0999 12.325 16.1331 12.2852 16.1655C13.093 16.7106 14.0417 17.0008 15.0118 16.9996C15.6638 17.0081 16.3109 16.885 16.9157 16.6376C17.5205 16.3902 18.0709 16.0234 18.5349 15.5584C18.999 15.0934 19.3674 14.5394 19.6189 13.9288C19.8704 13.3181 19.9999 12.6628 20 12.0008C20.0001 11.3389 19.8706 10.6836 19.6192 10.0729C19.3678 9.46215 18.9995 8.90817 18.5355 8.44308C18.0716 7.97799 17.5212 7.61105 16.9165 7.36355C16.3117 7.11605 15.6646 6.99291 15.0126 7.00128ZM11.9693 8.07343C11.3828 8.54023 10.9087 9.1365 10.5831 9.81698C10.2574 10.4975 10.0888 11.2443 10.0898 12.0008C10.0883 12.7578 10.2567 13.5052 10.5824 14.1861C10.9081 14.8671 11.3824 15.4637 11.9693 15.9307C12.556 15.4635 13.0302 14.8668 13.356 14.1859C13.6818 13.5051 13.8505 12.7578 13.8495 12.0008C13.8506 11.2442 13.6818 10.4973 13.356 9.81679C13.0302 9.13628 12.556 8.54007 11.9693 8.07343Z"
        fill="black" />
</svg>
