<svg fill="none" height="24" viewBox="0 0 24 24" width="24" xmlns="http://www.w3.org/2000/svg">
    <path
        d="M19.3581 4C19.2821 4 19.2041 4.014 19.1261 4.04599L7.59955 8.67742H4.31996C4.14398 8.67742 4 8.8254 4 9.00937V14.9886C4 15.1726 4.14398 15.3206 4.31996 15.3206H6.35371C6.27972 15.5526 6.23972 15.7985 6.23972 16.0485C6.23972 17.3663 7.31559 18.4382 8.63942 18.4382C9.74728 18.4382 10.6812 17.6863 10.9571 16.6704L19.1281 19.954C19.2061 19.984 19.2841 20 19.3601 20C19.698 20 20 19.716 20 19.3361V4.66392C19.998 4.28396 19.698 4 19.3581 4ZM8.63942 17.0044C8.10949 17.0044 7.67954 16.5764 7.67954 16.0485C7.67954 15.8245 7.75753 15.6105 7.89951 15.4406L9.5973 16.1225C9.55731 16.6144 9.14336 17.0044 8.63942 17.0044ZM18.5582 18.1722L8.13548 13.9848L7.87752 13.8808H5.43982V10.1172H7.87752L8.13548 10.0132L18.5582 5.82577V18.1722Z"
        fill="black" />
</svg>
