<svg fill="none" height="24" viewBox="0 0 24 24" width="24" xmlns="http://www.w3.org/2000/svg">
    <path
        d="M6.88763 11.1579H17.1132C17.8766 11.1579 18.2822 10.2986 17.7747 9.75519L12.6624 4.28323C12.5795 4.19419 12.4776 4.1229 12.3636 4.07407C12.2495 4.02525 12.1259 4 12.0009 4C11.8758 4 11.7522 4.02525 11.6382 4.07407C11.5241 4.1229 11.4223 4.19419 11.3394 4.28323L6.22523 9.75519C5.7178 10.2986 6.12339 11.1579 6.88763 11.1579ZM11.3385 19.7168C11.4214 19.8058 11.5232 19.8771 11.6373 19.9259C11.7513 19.9748 11.8749 20 12 20C12.125 20 12.2487 19.9748 12.3627 19.9259C12.4767 19.8771 12.5786 19.8058 12.6615 19.7168L17.7739 14.2448C18.2822 13.7022 17.8766 12.8429 17.1123 12.8429H6.88763C6.12428 12.8429 5.71869 13.7022 6.22611 14.2457L11.3385 19.7168Z"
        fill="black" />
</svg>
