<svg fill="none" height="24" viewBox="0 0 24 24" width="24" xmlns="http://www.w3.org/2000/svg">
    <path
        d="M10.0134 4.00483C9.92102 4.01811 9.83283 4.05087 9.75505 4.1008C9.75505 4.1008 8.95023 4.5905 8.08497 5.12018C7.21971 5.64925 6.2571 6.23246 6.03697 6.35058C6.02339 6.35628 6.01002 6.36244 5.99689 6.36904C5.19779 6.84582 5.03174 7.62466 5.00311 8.06145C5.0012 8.08175 5.00311 8.09836 5.00311 8.11989C4.99611 8.28354 5.00311 8.38874 5.00311 8.38874V16.4251C5.00311 17.5927 6.41107 18.1544 7.74714 18.1544C8.19249 18.1544 8.63785 18.0849 9.01958 17.9618C9.27407 17.8388 9.45667 17.5927 9.45667 17.3466V10.8871C9.45667 9.4721 9.77478 8.80769 10.7291 8.25401C10.9836 8.13097 13.6519 6.34997 13.6519 6.34997C13.7792 6.22693 13.9102 5.97716 13.9102 5.7926V5.73477C13.9102 5.48869 13.783 5.30044 13.5921 5.1774C13.4012 5.05436 13.1468 5.05436 12.9559 5.1774C12.8923 5.23892 9.01131 7.76554 8.18422 8.19618C7.35713 8.68834 6.58539 8.80707 6.39453 8.56099C6.33536 8.50378 6.28383 8.32845 6.27555 8.15742V8.13835V8.11866C6.27619 7.95133 6.32073 7.63635 6.67319 7.42656C7.03075 7.23401 7.91828 6.68586 8.781 6.15802C9.14555 5.93471 9.19073 5.91071 9.47639 5.73477C9.51399 5.88506 9.60875 6.01614 9.74179 6.10193C9.87483 6.18772 10.0364 6.22191 10.1943 6.19771C10.3523 6.17352 10.495 6.09269 10.5941 5.97134C10.6932 5.84998 10.7414 5.69699 10.7291 5.54283V4.62003C10.7298 4.53234 10.7111 4.44552 10.6743 4.36538C10.6375 4.28525 10.5834 4.21365 10.5156 4.15539C10.4478 4.09714 10.3679 4.05356 10.2813 4.02759C10.1947 4.00163 10.1033 3.99386 10.0134 4.00483ZM15.1031 6.15802C15.002 6.17429 14.9064 6.21397 14.8245 6.27368C14.8245 6.27368 11.6217 8.35736 11.0669 8.71479C11.0602 8.72121 11.0536 8.72777 11.0472 8.73448C10.5866 9.06853 10.3137 9.46595 10.1921 9.82953C10.1062 10.0873 10.0935 10.2977 10.0929 10.4644V10.657C10.092 10.676 10.092 10.6951 10.0929 10.7142V18.1544C10.0929 19.3233 11.4849 20 12.7574 20C13.33 20 13.8466 19.8807 14.2283 19.6346C14.9918 19.2039 18.6819 16.4245 18.6819 16.4245C18.8728 16.3014 19 16.1279 19 15.9434V7.94579C19 7.63819 18.8766 7.45363 18.6221 7.33059C18.4312 7.20755 18.1176 7.26538 17.9267 7.38842C16.9087 8.12666 14.1685 10.211 13.5323 10.5801C12.6416 11.0722 11.8024 11.1953 11.4843 10.8877C11.3571 10.7646 11.3653 10.649 11.3653 10.4644C11.3692 10.3586 11.3812 10.2676 11.4054 10.195C11.441 10.0879 11.5136 9.95626 11.7827 9.75325C11.7954 9.7434 11.7891 9.74402 11.8024 9.73418C12.2624 9.43703 13.6691 8.50993 14.5865 7.90703C14.6385 8.04187 14.7377 8.15482 14.8669 8.22623C14.9961 8.29765 15.1471 8.32303 15.2936 8.29794C15.4401 8.27284 15.5729 8.19888 15.6689 8.08891C15.7649 7.97894 15.818 7.83991 15.8189 7.69602V6.77322C15.8196 6.68554 15.8009 6.59871 15.7641 6.51858C15.7273 6.43844 15.6731 6.36685 15.6054 6.30859C15.5376 6.25033 15.4577 6.20676 15.3711 6.18079C15.2845 6.15482 15.1931 6.14706 15.1031 6.15802ZM17.7276 10.657V11.8874L14.5464 14.2707V13.0403L17.7276 10.657Z"
        fill="black" />
</svg>
