<svg fill="none" height="24" viewBox="0 0 24 24" width="24" xmlns="http://www.w3.org/2000/svg">
    <path
        d="M12 4C7.58971 4 4 7.58972 4 12C4 16.4103 7.58971 20 12 20C16.4103 20 20 16.4103 20 12C20 7.58972 16.4103 4 12 4ZM12 17.7143C8.84914 17.7143 6.28571 15.1509 6.28571 12C6.28571 8.84914 8.84914 6.28571 12 6.28571C15.1509 6.28571 17.7143 8.84914 17.7143 12C17.7143 15.1509 15.1509 17.7143 12 17.7143Z"
        fill="black" />
    <path
        d="M12 8.57141C10.1406 8.57141 8.57143 10.1406 8.57143 12C8.57143 13.8594 10.1406 15.4286 12 15.4286C13.8594 15.4286 15.4286 13.8594 15.4286 12C15.4286 10.1406 13.8594 8.57141 12 8.57141Z"
        fill="black" />
</svg>
