<svg fill="none" height="24" viewBox="0 0 24 24" width="24" xmlns="http://www.w3.org/2000/svg">
    <path
        d="M14.4705 14.8844C14.4567 14.8655 14.4385 14.8501 14.4175 14.8396C14.3964 14.8291 14.3731 14.8237 14.3495 14.8239H13.5266C13.4056 14.8239 13.3348 14.9596 13.4056 15.0569L14.7795 16.9303C14.8391 17.011 14.9601 17.011 15.0197 16.9303L17.1457 14.0312C17.2165 13.9339 17.1457 13.7982 17.0247 13.7982H16.2C16.1516 13.7982 16.1069 13.8202 16.079 13.8587L14.8968 15.4697L14.4705 14.8844ZM15.2766 8.22018V7.33945C15.2766 7.25872 15.2096 7.19266 15.1277 7.19266H7.97872C7.89681 7.19266 7.82979 7.25872 7.82979 7.33945V8.22018C7.82979 8.30092 7.89681 8.36697 7.97872 8.36697H15.1277C15.2096 8.36697 15.2766 8.30092 15.2766 8.22018ZM7.97872 9.83486C7.89681 9.83486 7.82979 9.90092 7.82979 9.98165V10.8624C7.82979 10.9431 7.89681 11.0092 7.97872 11.0092H11.4043C11.4862 11.0092 11.5532 10.9431 11.5532 10.8624V9.98165C11.5532 9.90092 11.4862 9.83486 11.4043 9.83486H7.97872ZM11.4043 18.2385H6.34043V5.3211H16.766V10.7523C16.766 10.833 16.833 10.8991 16.9149 10.8991H17.9574C18.0394 10.8991 18.1064 10.833 18.1064 10.7523V4.58716C18.1064 4.26239 17.8402 4 17.5106 4H5.59574C5.26622 4 5 4.26239 5 4.58716V18.9725C5 19.2972 5.26622 19.5596 5.59574 19.5596H11.4043C11.4862 19.5596 11.5532 19.4936 11.5532 19.4128V18.3853C11.5532 18.3046 11.4862 18.2385 11.4043 18.2385ZM18.8995 12.3523L15.325 11.1284C15.3082 11.1229 15.2934 11.1211 15.2766 11.1211C15.2598 11.1211 15.2431 11.1229 15.2282 11.1284L11.6537 12.3523C11.6245 12.3621 11.5991 12.3806 11.5811 12.4052C11.5631 12.4299 11.5533 12.4595 11.5532 12.4899V17.0972C11.5532 17.1431 11.5737 17.1853 11.6109 17.2128L15.1854 19.9688C15.2114 19.989 15.2449 20 15.2766 20C15.3082 20 15.3418 19.989 15.3678 19.9688L18.9423 17.2128C18.9777 17.1853 19 17.1431 19 17.0972V12.4899C19 12.4275 18.959 12.3725 18.8995 12.3523ZM17.8457 16.6183L15.2766 18.5982L12.7074 16.6183V13.1927L15.2766 12.3119L17.8457 13.1927V16.6183Z"
        fill="black" />
</svg>
