<svg fill="none" height="24" viewBox="0 0 24 24" width="24" xmlns="http://www.w3.org/2000/svg">
    <path
        d="M6.16667 19.5H17.8333C18.7525 19.5 19.5 18.7525 19.5 17.8333V8.66667C19.5001 8.55722 19.4786 8.44883 19.4367 8.34772C19.3948 8.24662 19.3333 8.15478 19.2558 8.0775L15.9225 4.74417C15.8452 4.66663 15.7534 4.60514 15.6523 4.56324C15.5512 4.52133 15.4428 4.49984 15.3333 4.5H6.16667C5.2475 4.5 4.5 5.2475 4.5 6.16667V17.8333C4.5 18.7525 5.2475 19.5 6.16667 19.5ZM14.5 17.8333H9.5V13.6667H14.5V17.8333ZM12.8333 7.83333H11.1667V6.16667H12.8333V7.83333ZM6.16667 6.16667H7.83333V9.5H14.5V6.16667H14.9883L17.8333 9.01167L17.8342 17.8333H16.1667V13.6667C16.1667 12.7475 15.4192 12 14.5 12H9.5C8.58083 12 7.83333 12.7475 7.83333 13.6667V17.8333H6.16667V6.16667Z"
        fill="black" />
</svg>
