<svg fill="none" height="24" viewBox="0 0 24 24" width="24" xmlns="http://www.w3.org/2000/svg">
    <path
        d="M19.9519 18.8499L14.758 13.656C15.564 12.614 15.9999 11.34 15.9999 9.99997C15.9999 8.39598 15.374 6.89199 14.242 5.75799C13.11 4.624 11.602 4 9.99997 4C8.39798 4 6.88999 4.626 5.75799 5.75799C4.624 6.88999 4 8.39598 4 9.99997C4 11.602 4.626 13.11 5.75799 14.242C6.88999 15.376 8.39598 15.9999 9.99997 15.9999C11.34 15.9999 12.612 15.5639 13.654 14.76L18.8479 19.9519C18.8632 19.9672 18.8812 19.9793 18.9012 19.9875C18.9211 19.9958 18.9424 20 18.9639 20C18.9855 20 19.0068 19.9958 19.0267 19.9875C19.0466 19.9793 19.0647 19.9672 19.0799 19.9519L19.9519 19.0819C19.9672 19.0667 19.9793 19.0486 19.9875 19.0287C19.9958 19.0088 20 18.9875 20 18.9659C20 18.9444 19.9958 18.9231 19.9875 18.9032C19.9793 18.8832 19.9672 18.8652 19.9519 18.8499ZM13.168 13.168C12.32 14.014 11.196 14.48 9.99997 14.48C8.80398 14.48 7.67998 14.014 6.83199 13.168C5.98599 12.32 5.51999 11.196 5.51999 9.99997C5.51999 8.80398 5.98599 7.67798 6.83199 6.83199C7.67998 5.98599 8.80398 5.51999 9.99997 5.51999C11.196 5.51999 12.322 5.98399 13.168 6.83199C14.014 7.67998 14.48 8.80398 14.48 9.99997C14.48 11.196 14.014 12.322 13.168 13.168Z"
        fill="black" />
</svg>
