<svg fill="none" height="24" viewBox="0 0 24 24" width="24" xmlns="http://www.w3.org/2000/svg">
    <path
        d="M12 13.6696C11.0532 13.6696 10.2857 12.9221 10.2857 12C10.2857 11.0779 11.0532 10.3304 12 10.3304C12.9468 10.3304 13.7143 11.0779 13.7143 12C13.7143 12.9221 12.9468 13.6696 12 13.6696Z"
        fill="black" />
    <path
        d="M4.34324 13.5304L4.36002 13.5172L5.48716 12.6563C5.55854 12.6014 5.61551 12.5307 5.65338 12.4501C5.69125 12.3695 5.70895 12.2813 5.70502 12.1927V11.7906C5.7086 11.7026 5.69068 11.6151 5.65275 11.5351C5.61481 11.4552 5.55794 11.3851 5.48681 11.3308L4.36002 10.4696L4.34324 10.4563C4.16946 10.3154 4.05285 10.1188 4.01424 9.90173C3.97564 9.68469 4.01757 9.46135 4.13252 9.27165L5.65788 6.70122C5.65963 6.69879 5.66119 6.69623 5.66252 6.69357C5.7781 6.50649 5.9573 6.36475 6.16901 6.29295C6.38072 6.22115 6.61156 6.22383 6.82145 6.30052L6.83395 6.30504L8.15894 6.82435C8.24257 6.85728 8.33304 6.87038 8.42289 6.86258C8.51274 6.85478 8.5994 6.8263 8.67573 6.77948C8.79287 6.70759 8.91192 6.63965 9.03287 6.57565C9.11129 6.53424 9.17862 6.47545 9.22943 6.40404C9.28024 6.33262 9.3131 6.25058 9.32537 6.16452L9.52501 4.78748L9.5293 4.76243C9.57276 4.54915 9.69028 4.35693 9.86211 4.21808C10.0339 4.07924 10.2496 4.00223 10.4729 4H13.5271C13.7535 4.00071 13.9724 4.07921 14.1452 4.22167C14.318 4.36414 14.4337 4.56143 14.4718 4.77878L14.475 4.79826L14.6739 6.17809C14.6861 6.2639 14.7187 6.34575 14.7691 6.41712C14.8195 6.4885 14.8864 6.54743 14.9643 6.58922C15.0856 6.65285 15.2047 6.72036 15.3214 6.79165C15.3976 6.83819 15.4841 6.86645 15.5736 6.87413C15.6632 6.88181 15.7534 6.86868 15.8368 6.83583L17.1628 6.31409L17.1753 6.30922C17.3855 6.23244 17.6167 6.22986 17.8287 6.30193C18.0406 6.374 18.2199 6.51615 18.3353 6.70365L18.34 6.7113L19.8675 9.28348C19.9826 9.47337 20.0246 9.69695 19.986 9.91425C19.9474 10.1315 19.8307 10.3284 19.6568 10.4696L19.64 10.4828L18.5128 11.3437C18.4415 11.3986 18.3845 11.4693 18.3466 11.5499C18.3088 11.6305 18.2911 11.7187 18.295 11.8073V12.2094C18.2914 12.2974 18.3093 12.3849 18.3473 12.4649C18.3852 12.5448 18.4421 12.6149 18.5132 12.6692L19.64 13.5304L19.6568 13.5437C19.8305 13.6846 19.9472 13.8812 19.9858 14.0983C20.0244 14.3153 19.9824 14.5386 19.8675 14.7283L18.3421 17.2988C18.3404 17.3012 18.3388 17.3038 18.3375 17.3064C18.2219 17.4935 18.0427 17.6353 17.831 17.707C17.6193 17.7788 17.3885 17.7762 17.1786 17.6995L17.1661 17.695L15.8421 17.1757C15.7585 17.1427 15.668 17.1296 15.5782 17.1374C15.4883 17.1452 15.4017 17.1737 15.3254 17.2205C15.2082 17.2926 15.0892 17.3606 14.9682 17.4243C14.8898 17.4658 14.8225 17.5245 14.7717 17.596C14.7208 17.6674 14.688 17.7494 14.6757 17.8355L14.4771 19.2125L14.4729 19.2376C14.4293 19.4512 14.3115 19.6437 14.1392 19.7826C13.9669 19.9215 13.7508 19.9982 13.5271 20H10.4729C10.2465 19.9993 10.0276 19.9208 9.85477 19.7783C9.68196 19.6359 9.56632 19.4386 9.52822 19.2212L9.52501 19.2017L9.32608 17.8219C9.31369 17.7359 9.28081 17.654 9.23009 17.5826C9.17936 17.5112 9.11219 17.4524 9.03394 17.4108C8.9118 17.3468 8.79251 17.279 8.6768 17.2083C8.60061 17.1618 8.51417 17.1335 8.42458 17.1259C8.33499 17.1182 8.24481 17.1313 8.16144 17.1642L6.83538 17.6842L6.82288 17.689C6.6127 17.766 6.38147 17.7686 6.16949 17.6965C5.95751 17.6244 5.77823 17.4822 5.66288 17.2946C5.66146 17.292 5.65991 17.2894 5.65823 17.287L4.13288 14.7169C4.01754 14.527 3.97536 14.3033 4.01391 14.086C4.05245 13.8686 4.1692 13.6716 4.34324 13.5304ZM9.14608 12.1308C9.17209 12.6694 9.35823 13.1891 9.68187 13.6266C10.0055 14.0641 10.4527 14.4006 10.9691 14.5952C11.4855 14.7898 12.0487 14.8341 12.5905 14.7226C13.1322 14.6112 13.629 14.3489 14.0205 13.9676C14.412 13.5862 14.6813 13.1024 14.7956 12.5748C14.91 12.0471 14.8644 11.4986 14.6646 10.9957C14.4647 10.4928 14.1192 10.0573 13.6699 9.74216C13.2206 9.42701 12.687 9.24579 12.1339 9.22052C11.7369 9.2035 11.3405 9.26712 10.9701 9.40736C10.5996 9.54759 10.2632 9.76137 9.98221 10.0351C9.70119 10.3088 9.48173 10.6365 9.33778 10.9973C9.19384 11.3581 9.12855 11.7441 9.14608 12.1308Z"
        fill="black" />
</svg>
