<svg fill="none" height="24" viewBox="0 0 24 24" width="24" xmlns="http://www.w3.org/2000/svg">
    <path
        d="M15.6368 12.8C16.2366 12.8 16.7645 12.472 17.0364 11.976L19.8996 6.784C19.967 6.66274 20.0016 6.52598 19.9999 6.38724C19.9983 6.24851 19.9604 6.11262 19.8901 5.99301C19.8198 5.8734 19.7196 5.77422 19.5992 5.70529C19.4788 5.63636 19.3425 5.60007 19.2038 5.6H7.36707L6.61528 4H4V5.6H5.59956L8.47877 11.672L7.39906 13.624C6.81522 14.696 7.58301 16 8.79868 16H18.396V14.4H8.79868L9.67844 12.8H15.6368ZM8.12686 7.2H17.8442L15.6368 11.2H10.0223L8.12686 7.2ZM8.79868 16.8C7.91892 16.8 7.20712 17.52 7.20712 18.4C7.20712 19.28 7.91892 20 8.79868 20C9.67844 20 10.3982 19.28 10.3982 18.4C10.3982 17.52 9.67844 16.8 8.79868 16.8ZM16.7965 16.8C15.9167 16.8 15.2049 17.52 15.2049 18.4C15.2049 19.28 15.9167 20 16.7965 20C17.6762 20 18.396 19.28 18.396 18.4C18.396 17.52 17.6762 16.8 16.7965 16.8Z"
        fill="black" />
</svg>
