<svg fill="none" height="24" viewBox="0 0 24 24" width="24" xmlns="http://www.w3.org/2000/svg">
    <path
        d="M19.894 11.5252C18.1545 7.84969 15.525 6 12 6C8.47319 6 5.84551 7.84969 4.10596 11.527C4.03619 11.6752 4 11.837 4 12.0009C4 12.1648 4.03619 12.3267 4.10596 12.4748C5.84551 16.1503 8.47502 18 12 18C15.5268 18 18.1545 16.1503 19.894 12.473C20.0353 12.1748 20.0353 11.8288 19.894 11.5252ZM12 16.6748C9.04019 16.6748 6.87309 15.1693 5.34456 12C6.87309 8.83067 9.04019 7.32515 12 7.32515C14.9598 7.32515 17.1269 8.83067 18.6554 12C17.1287 15.1693 14.9616 16.6748 12 16.6748ZM11.9266 8.76074C10.143 8.76074 8.69705 10.211 8.69705 12C8.69705 13.789 10.143 15.2393 11.9266 15.2393C13.7102 15.2393 15.1561 13.789 15.1561 12C15.1561 10.211 13.7102 8.76074 11.9266 8.76074ZM11.9266 14.0613C10.7908 14.0613 9.87143 13.1393 9.87143 12C9.87143 10.8607 10.7908 9.93865 11.9266 9.93865C13.0624 9.93865 13.9818 10.8607 13.9818 12C13.9818 13.1393 13.0624 14.0613 11.9266 14.0613Z"
        fill="black" />
</svg>
