<svg fill="none" height="24" viewBox="0 0 24 24" width="24" xmlns="http://www.w3.org/2000/svg">
    <path
        d="M14.6812 4.00063C13.5914 4.00063 12.5756 4.42973 11.7385 5.2425C10.7877 6.16634 10.3525 7.3022 10.4798 8.5163C10.5753 9.41742 10.9987 10.3261 11.6774 11.1389L6.96887 15.7139L6.11614 14.8853C5.70049 14.4796 5.35563 14.8159 4.93933 15.221L4.53342 15.635C4.11647 16.0382 3.77226 16.3544 4.18856 16.7589L5.03999 17.588L4.37105 18.238C4.27199 18.3336 4.19337 18.4473 4.13971 18.5725C4.08606 18.6978 4.05844 18.8321 4.05844 18.9678C4.05844 19.1035 4.08606 19.2378 4.13971 19.363C4.19337 19.4883 4.27199 19.602 4.37105 19.6976C4.7867 20.1008 5.45629 20.1008 5.87324 19.6976L13.2608 12.5196C14.0609 13.0067 14.9299 13.2686 15.7768 13.2686C16.8659 13.2686 17.8836 12.8395 18.7201 12.0261C19.6716 11.1029 20.106 9.96705 19.9781 8.75294C19.8638 7.66062 19.267 6.56136 18.3142 5.6369C17.2348 4.58686 15.9456 4 14.6812 4V4.00063ZM14.7221 5.30182C15.6268 5.30182 16.5665 5.75175 17.3803 6.54433C18.1038 7.24477 18.5551 8.06007 18.6389 8.85138C18.7253 9.67425 18.4272 10.458 17.7661 11.0998C17.1738 11.674 16.4834 11.9668 15.7365 11.9668C14.8312 11.9668 13.8934 11.5162 13.0776 10.7249C12.3548 10.0226 11.9034 9.20918 11.8197 8.41786C11.7339 7.595 12.0307 6.81188 12.6925 6.16949C13.2848 5.59525 13.9752 5.30182 14.7214 5.30182H14.7221Z"
        fill="black" />
</svg>
