<svg fill="none" height="24" viewBox="0 0 24 24" width="24" xmlns="http://www.w3.org/2000/svg">
    <path
        d="M16.9351 5.52853L17.3878 8.26006L19.9926 9.52676L18.679 12.0035L20 14.4803L17.3729 15.747L16.9202 18.4785L14.0334 18.0469L11.9777 20L9.91466 18.0186L7.05009 18.4715L6.58998 15.7187L4 14.4591L5.32096 11.9823L4.00742 9.52676L6.61224 8.24591L7.06493 5.5356L9.93692 5.9885L12 4L14.0557 5.96019L16.9351 5.52853ZM10.1447 8.46528C9.84948 8.46528 9.56634 8.57711 9.35758 8.77618C9.14882 8.97525 9.03154 9.24524 9.03154 9.52676C9.03154 9.80828 9.14882 10.0783 9.35758 10.2773C9.56634 10.4764 9.84948 10.5882 10.1447 10.5882C10.4399 10.5882 10.7231 10.4764 10.9318 10.2773C11.1406 10.0783 11.2579 9.80828 11.2579 9.52676C11.2579 9.24524 11.1406 8.97525 10.9318 8.77618C10.7231 8.57711 10.4399 8.46528 10.1447 8.46528ZM13.8553 13.4188C13.5601 13.4188 13.2769 13.5307 13.0682 13.7297C12.8594 13.9288 12.7421 14.1988 12.7421 14.4803C12.7421 14.7618 12.8594 15.0318 13.0682 15.2309C13.2769 15.43 13.5601 15.5418 13.8553 15.5418C14.1505 15.5418 14.4337 15.43 14.6424 15.2309C14.8512 15.0318 14.9685 14.7618 14.9685 14.4803C14.9685 14.1988 14.8512 13.9288 14.6424 13.7297C14.4337 13.5307 14.1505 13.4188 13.8553 13.4188ZM9.33581 15.5418L15.7106 9.46307L14.6642 8.46528L8.28942 14.544L9.33581 15.5418Z"
        fill="black" />
</svg>
