<svg fill="none" height="24" viewBox="0 0 24 24" width="24" xmlns="http://www.w3.org/2000/svg">
    <path
        d="M12.2294 12.1553C12.6179 11.8293 12.9296 11.426 13.1432 10.973C13.3568 10.5199 13.4674 10.0276 13.4674 9.52941C13.4674 8.59335 13.0838 7.69563 12.4009 7.03374C11.718 6.37185 10.7918 6 9.82609 6C8.86036 6 7.93418 6.37185 7.2513 7.03374C6.56842 7.69563 6.18478 8.59335 6.18478 9.52941C6.18478 10.0276 6.29534 10.5199 6.50895 10.973C6.72257 11.426 7.03425 11.8293 7.42283 12.1553C6.40336 12.6027 5.53843 13.3253 4.93143 14.2366C4.32444 15.1479 4.00107 16.2094 4 17.2941C4 17.4813 4.07673 17.6609 4.2133 17.7933C4.34988 17.9256 4.53511 18 4.72826 18C4.92141 18 5.10664 17.9256 5.24322 17.7933C5.3798 17.6609 5.45652 17.4813 5.45652 17.2941C5.45652 16.1708 5.91689 15.0936 6.73634 14.2993C7.55579 13.505 8.66721 13.0588 9.82609 13.0588C10.985 13.0588 12.0964 13.505 12.9158 14.2993C13.7353 15.0936 14.1957 16.1708 14.1957 17.2941C14.1957 17.4813 14.2724 17.6609 14.409 17.7933C14.5455 17.9256 14.7308 18 14.9239 18C15.1171 18 15.3023 17.9256 15.4389 17.7933C15.5755 17.6609 15.6522 17.4813 15.6522 17.2941C15.6511 16.2094 15.3277 15.1479 14.7208 14.2366C14.1138 13.3253 13.2488 12.6027 12.2294 12.1553ZM9.82609 11.6471C9.39398 11.6471 8.97158 11.5229 8.61229 11.2902C8.25301 11.0575 7.97298 10.7267 7.80762 10.3398C7.64225 9.95285 7.59899 9.52706 7.68329 9.11628C7.76759 8.7055 7.97567 8.32817 8.28122 8.03201C8.58676 7.73585 8.97606 7.53416 9.39986 7.45246C9.82367 7.37075 10.263 7.41268 10.6622 7.57296C11.0614 7.73324 11.4026 8.00466 11.6427 8.35291C11.8827 8.70116 12.0109 9.11058 12.0109 9.52941C12.0109 10.091 11.7807 10.6297 11.371 11.0268C10.9612 11.424 10.4055 11.6471 9.82609 11.6471ZM16.9194 11.8729C17.3854 11.3642 17.6899 10.7358 17.796 10.0633C17.9022 9.39079 17.8056 8.70288 17.5178 8.08235C17.23 7.46183 16.7634 6.93515 16.174 6.56571C15.5846 6.19627 14.8976 5.99982 14.1957 6C14.0025 6 13.8173 6.07437 13.6807 6.20675C13.5441 6.33913 13.4674 6.51867 13.4674 6.70588C13.4674 6.89309 13.5441 7.07264 13.6807 7.20502C13.8173 7.3374 14.0025 7.41176 14.1957 7.41176C14.7751 7.41176 15.3308 7.63487 15.7405 8.03201C16.1503 8.42915 16.3804 8.96778 16.3804 9.52941C16.3794 9.90017 16.278 10.2642 16.0863 10.585C15.8946 10.9058 15.6193 11.1723 15.2881 11.3576C15.1801 11.418 15.0899 11.5042 15.0261 11.6081C14.9624 11.7119 14.9272 11.8298 14.9239 11.9506C14.9209 12.0704 14.9494 12.189 15.0067 12.2952C15.064 12.4014 15.1483 12.4918 15.2516 12.5576L15.5357 12.7412L15.6303 12.7906C16.5082 13.1942 17.2488 13.8325 17.7649 14.6303C18.281 15.4282 18.5511 16.3524 18.5434 17.2941C18.5434 17.4813 18.6201 17.6609 18.7567 17.7933C18.8933 17.9256 19.0785 18 19.2716 18C19.4648 18 19.65 17.9256 19.7866 17.7933C19.9232 17.6609 19.9999 17.4813 19.9999 17.2941C20.0059 16.2109 19.726 15.1442 19.1868 14.1953C18.6476 13.2465 17.8671 12.447 16.9194 11.8729Z"
        fill="black" />
</svg>
