<svg fill="none" height="24" viewBox="0 0 24 24" width="24" xmlns="http://www.w3.org/2000/svg">
    <path
        d="M15.6311 10.2048C15.2592 10.0666 14.8662 9.99731 14.4704 10.0001C13.1906 10.0001 12.2868 10.6575 12.2804 11.6012C12.2724 12.2945 12.9227 12.6852 13.4146 12.9168C13.9193 13.155 14.0881 13.3051 14.0865 13.518C14.0833 13.8418 13.6833 13.9886 13.3114 13.9886C12.8003 13.9886 12.5211 13.916 12.0916 13.7341L11.9324 13.6583L11.7508 14.7447C12.062 14.8768 12.6227 14.9902 13.2018 15C14.5624 15 15.4519 14.3467 15.4623 13.3426C15.4735 12.7888 15.1215 12.3704 14.3808 12.0245C13.9305 11.8002 13.6514 11.6501 13.6514 11.4226C13.6514 11.2211 13.8905 11.0058 14.3904 11.0058C14.7232 10.9976 15.0538 11.0612 15.3607 11.1926L15.4807 11.2472L15.6622 10.1975L15.6311 10.2048ZM18.9522 10.0882H17.9523C17.6412 10.0882 17.4068 10.1754 17.2708 10.4903L15.3479 14.9323H16.7085L16.9805 14.2039L18.641 14.2056C18.6802 14.376 18.8002 14.9323 18.8002 14.9323H20L18.9522 10.0882ZM10.4398 10.0474H11.7364L10.9254 14.894H9.63036L10.4398 10.0458V10.0474ZM7.14833 12.7186L7.28271 13.3915L8.54972 10.0882H9.92311L7.88262 14.9258H6.51242L5.39259 10.8296C5.37445 10.7621 5.33186 10.704 5.27341 10.6673C4.86979 10.4547 4.44213 10.2933 4 10.1869L4.0176 10.0849H6.10448C6.38764 10.0963 6.61561 10.1869 6.6916 10.4952L7.14753 12.7211V12.7186H7.14833ZM17.3524 13.2129L17.8691 11.8573C17.8627 11.872 17.9755 11.5775 18.0411 11.3957L18.1299 11.8141L18.4298 13.2121H17.3516V13.2129H17.3524Z"
        fill="black" />
</svg>
